<?xml version="1.0" encoding="UTF-8"?>
<svg width="129px" height="40px" viewBox="0 0 129 40" version="1.1" xmlns="http://www.w3.org/2000/svg" xmlns:xlink="http://www.w3.org/1999/xlink">
    <!-- Generator: Sketch 46.2 (44496) - http://www.bohemiancoding.com/sketch -->
    <title>icon_bazaar</title>
    <desc>Created with Sketch.</desc>
    <defs>
        <rect id="path-1" x="0" y="0" width="128" height="40" rx="4"></rect>
    </defs>
    <g id="Symbols" stroke="none" stroke-width="1" fill="none" fill-rule="evenodd">
        <g id="Icon-Base" transform="translate(-277.000000, -136.000000)">
            <g id="icon_bazaar" transform="translate(277.000000, 136.000000)">
                <g id="Rectangle-12">
                    <use fill="#84A42B" fill-rule="evenodd" xlink:href="#path-1"></use>
                    <rect stroke-opacity="0.3" stroke="#FFFFFF" stroke-width="0.7" x="0.35" y="0.35" width="127.3" height="39.3" rx="4"></rect>
                </g>
                <path d="M116.079102,12 L114.691406,12 L114.691406,11.0839844 L116.08252,11.0839844 C116.137207,11.0839844 116.189616,11.0828451 116.239746,11.0805664 C116.360515,11.0737304 116.462483,11.0617677 116.545654,11.0446777 C116.628825,11.0275878 116.690348,11.0059409 116.730225,10.9797363 C116.770101,10.9535318 116.798014,10.9273276 116.813965,10.901123 C116.829915,10.8749185 116.837891,10.845866 116.837891,10.8139648 C116.835612,10.7957356 116.831624,10.7757976 116.825928,10.7541504 C116.820231,10.7325031 116.812256,10.7080079 116.802002,10.6806641 C116.791748,10.6533202 116.778076,10.6242677 116.760986,10.5935059 C116.743896,10.562744 116.723958,10.5302736 116.701172,10.4960938 C116.678385,10.4619139 116.651611,10.4248863 116.62085,10.3850098 C116.590088,10.3451333 116.557617,10.3046877 116.523438,10.2636719 L115.504883,9.08789062 L116.109863,8.41113281 L117.237793,9.72363281 C117.56592,10.1041686 117.728841,10.4790021 117.726562,10.8481445 C117.726562,11.1056328 117.659913,11.3209627 117.526611,11.4941406 C117.39331,11.6673186 117.205323,11.7949215 116.962646,11.8769531 C116.719969,11.9589848 116.425457,12 116.079102,12 Z M113.098633,11.996582 L113.098633,7.35839844 L113.970215,7.35839844 L113.970215,11.996582 L113.098633,11.996582 Z M110.866699,8.32226562 C110.866699,8.18554619 110.91455,8.06876676 111.010254,7.97192383 C111.105958,7.8750809 111.222167,7.82666016 111.358887,7.82666016 C111.40446,7.82666016 111.448323,7.83235671 111.490479,7.84375 C111.532634,7.85514329 111.57194,7.8716633 111.608398,7.89331055 C111.644857,7.91495779 111.679036,7.94173161 111.710938,7.97363281 C111.758789,8.01920596 111.794678,8.07161429 111.818604,8.13085938 C111.842529,8.19010446 111.854492,8.2527666 111.854492,8.31884766 C111.854492,8.33479826 111.853923,8.34903965 111.852783,8.36157227 C111.851644,8.37410488 111.849935,8.38720696 111.847656,8.40087891 C111.845378,8.41455085 111.843099,8.42765293 111.84082,8.44018555 C111.838542,8.45271816 111.835124,8.46468093 111.830566,8.47607422 C111.826009,8.4874675 111.821452,8.49943028 111.816895,8.51196289 C111.812337,8.52449551 111.80721,8.53645828 111.801514,8.54785156 C111.795817,8.55924485 111.789551,8.57006831 111.782715,8.58032227 L111.762207,8.61108398 C111.755371,8.62133794 111.747396,8.63159175 111.738281,8.6418457 C111.729167,8.65209966 111.720052,8.66178381 111.710938,8.67089844 C111.612955,8.7688807 111.496745,8.81787109 111.362305,8.81787109 C111.223307,8.81787109 111.105958,8.76945035 111.010254,8.67260742 C110.91455,8.57576449 110.866699,8.45898506 110.866699,8.32226562 Z M110.241211,12 C110.118163,12 110.021892,11.9589848 109.952393,11.8769531 C109.882894,11.7949215 109.848145,11.6901048 109.848145,11.5625 L109.848145,11.5249023 C109.848145,11.440592 109.862956,11.3653975 109.892578,11.2993164 C109.922201,11.2332353 109.967203,11.180827 110.027588,11.1420898 C110.087972,11.1033527 110.159179,11.0839844 110.241211,11.0839844 L111.037598,11.0839844 C111.20394,11.0839844 111.325276,11.0384119 111.401611,10.9472656 C111.477946,10.8561193 111.516113,10.7000337 111.516113,10.4790039 L111.516113,9.36474609 L112.397949,9.36474609 L112.397949,10.4619141 C112.397949,10.9563827 112.286866,11.3363431 112.064697,11.6018066 C111.842528,11.8672702 111.517255,12 111.088867,12 L110.241211,12 Z M110.271973,12 L110.114746,12 C109.743325,12 109.417482,11.8632826 109.137207,11.5898438 C108.875161,11.8632826 108.552736,12 108.169922,12 L107.845215,12 C107.763183,12 107.692546,11.9806317 107.633301,11.9418945 C107.571777,11.9031574 107.526205,11.850749 107.496582,11.784668 C107.466959,11.7208656 107.452148,11.6468103 107.452148,11.5625 L107.452148,11.5249023 C107.452148,11.3950189 107.486328,11.2890629 107.554688,11.2070312 C107.625326,11.1249996 107.722167,11.0839844 107.845215,11.0839844 L108.163086,11.0839844 C108.345379,11.0839844 108.479817,11.0292974 108.566406,10.9199219 C108.652995,10.8082677 108.696289,10.6225599 108.696289,10.362793 L108.696289,7.32421875 L109.567871,7.32421875 L109.567871,10.3662109 C109.567871,10.6236992 109.614583,10.8071284 109.708008,10.9165039 C109.801433,11.0281581 109.948404,11.0839844 110.148926,11.0839844 L110.271973,11.0839844 C110.39502,11.0839844 110.490722,11.1249996 110.559082,11.2070312 C110.62972,11.2867843 110.665039,11.3927402 110.665039,11.5249023 L110.665039,11.5625 C110.665039,11.7493499 110.600098,11.8792314 110.470215,11.9521484 C110.408691,11.9840496 110.342611,12 110.271973,12 Z M107.872559,12 L107.48291,12 C107.451009,12.551435 107.265871,12.9689927 106.92749,13.2526855 C106.58911,13.5363784 106.114586,13.6770833 105.503906,13.6748047 L105.004883,13.6748047 L105.004883,12.7587891 L105.483398,12.7587891 C105.857098,12.7610677 106.131103,12.6995449 106.30542,12.5742188 C106.479737,12.4488926 106.57373,12.2574883 106.587402,12 L106.105469,12 C105.715818,12 105.420167,11.8803723 105.218506,11.6411133 C105.016845,11.4018543 104.916016,11.0612001 104.916016,10.6191406 C104.918294,10.1748025 105.029377,9.83357866 105.249268,9.59545898 C105.469158,9.3573393 105.787026,9.23771159 106.202881,9.23657227 C106.618736,9.23543294 106.936034,9.35619996 107.154785,9.59887695 C107.373536,9.84155395 107.484049,10.1896136 107.486328,10.6430664 L107.486328,11.0839844 L107.872559,11.0839844 C107.995606,11.0839844 108.091878,11.1249996 108.161377,11.2070312 C108.230876,11.2890629 108.265625,11.3950189 108.265625,11.5249023 L108.265625,11.5625 C108.265625,11.6901048 108.230876,11.7949215 108.161377,11.8769531 C108.091878,11.9589848 107.995606,12 107.872559,12 Z M106.190918,10.1098633 C106.026855,10.1098633 105.909506,10.1480302 105.838867,10.2243652 C105.768229,10.3007003 105.73291,10.4311514 105.73291,10.6157227 C105.73291,10.7319342 105.746582,10.8242184 105.773926,10.8925781 C105.80127,10.9609378 105.841146,11.0093586 105.893555,11.0378418 C105.945964,11.066325 106.015462,11.0805664 106.102051,11.0805664 L106.621582,11.0805664 L106.618164,10.6635742 C106.618164,10.4584951 106.583985,10.3143722 106.515625,10.2312012 C106.447265,10.1480302 106.339031,10.1075846 106.190918,10.1098633 Z M102.752441,12 L101.364746,12 L101.364746,11.0839844 L102.755859,11.0839844 C102.810547,11.0839844 102.862955,11.0828451 102.913086,11.0805664 C103.033855,11.0737304 103.135823,11.0617677 103.218994,11.0446777 C103.302165,11.0275878 103.363688,11.0059409 103.403564,10.9797363 C103.443441,10.9535318 103.471354,10.9273276 103.487305,10.901123 C103.503255,10.8749185 103.51123,10.845866 103.51123,10.8139648 C103.508952,10.7957356 103.504964,10.7757976 103.499268,10.7541504 C103.493571,10.7325031 103.485596,10.7080079 103.475342,10.6806641 C103.465088,10.6533202 103.451416,10.6242677 103.434326,10.5935059 C103.417236,10.562744 103.397298,10.5302736 103.374512,10.4960938 C103.351725,10.4619139 103.324951,10.4248863 103.294189,10.3850098 C103.263428,10.3451333 103.230957,10.3046877 103.196777,10.2636719 L102.178223,9.08789062 L102.783203,8.41113281 L103.911133,9.72363281 C104.239259,10.1041686 104.402181,10.4790021 104.399902,10.8481445 C104.399902,11.1056328 104.333253,11.3209627 104.199951,11.4941406 C104.06665,11.6673186 103.878663,11.7949215 103.635986,11.8769531 C103.393309,11.9589848 103.098797,12 102.752441,12 Z M97.8920898,11.996582 L97.8920898,7.35839844 L98.7636719,7.35839844 L98.7636719,11.996582 L97.8920898,11.996582 Z M95.5576172,14.0883789 C95.5576172,13.9516595 95.6066076,13.8354497 95.7045898,13.7397461 C95.750163,13.6918943 95.8025713,13.6554363 95.8618164,13.6303711 C95.9210615,13.6053059 95.9837236,13.5927734 96.0498047,13.5927734 C96.1888028,13.5927734 96.3067215,13.6411942 96.4035645,13.7380371 C96.5004074,13.83488 96.5488281,13.9505202 96.5488281,14.0849609 C96.5488281,14.223959 96.5004074,14.3418778 96.4035645,14.4387207 C96.3067215,14.5355636 96.1910814,14.5839844 96.0566406,14.5839844 C95.9176425,14.5839844 95.7997238,14.5355636 95.7028809,14.4387207 C95.6060379,14.3418778 95.5576172,14.2250983 95.5576172,14.0883789 Z M96.1079102,13.0288086 C96.1079102,12.8920892 96.1557612,12.7753097 96.2514648,12.6784668 C96.3471684,12.5816239 96.4633782,12.5332031 96.6000977,12.5332031 C96.6274415,12.5332031 96.6542154,12.5354817 96.6804199,12.5400391 C96.7066245,12.5445964 96.7316893,12.5508626 96.7556152,12.5588379 C96.7795411,12.5668132 96.802897,12.5764973 96.8256836,12.5878906 C96.8484702,12.5992839 96.8706867,12.612386 96.892334,12.6271973 C96.9139812,12.6420085 96.9339192,12.6596679 96.9521484,12.6801758 C97.0000002,12.7257489 97.0358886,12.7781573 97.0598145,12.8374023 C97.0837404,12.8966474 97.0957031,12.9593096 97.0957031,13.0253906 C97.0957031,13.1643887 97.047852,13.2823075 96.9521484,13.3791504 C96.8564448,13.4759933 96.7402351,13.5244141 96.6035156,13.5244141 C96.4645175,13.5244141 96.3471684,13.4759933 96.2514648,13.3791504 C96.1557612,13.2823075 96.1079102,13.165528 96.1079102,13.0288086 Z M95.0004883,13.0288086 C95.0004883,12.8920892 95.0483394,12.7753097 95.144043,12.6784668 C95.2397466,12.5816239 95.3559563,12.5332031 95.4926758,12.5332031 C95.5382489,12.5332031 95.5821124,12.5388997 95.6242676,12.550293 C95.6664227,12.5616863 95.705729,12.5782063 95.7421875,12.5998535 C95.778646,12.6215008 95.8128254,12.6482746 95.8447266,12.6801758 C95.8925784,12.7257489 95.9284667,12.7781573 95.9523926,12.8374023 C95.9763185,12.8966474 95.9882812,12.9593096 95.9882812,13.0253906 C95.9882812,13.1643887 95.9404302,13.2823075 95.8447266,13.3791504 C95.749023,13.4759933 95.6328132,13.5244141 95.4960938,13.5244141 C95.3570957,13.5244141 95.2397466,13.4759933 95.144043,13.3791504 C95.0483394,13.2823075 95.0004883,13.165528 95.0004883,13.0288086 Z M94.9970703,12 C94.8740228,12 94.777751,11.9589848 94.708252,11.8769531 C94.6387529,11.7949215 94.6040039,11.6901048 94.6040039,11.5625 L94.6040039,11.5249023 C94.6040039,11.440592 94.618815,11.3653975 94.6484375,11.2993164 C94.67806,11.2332353 94.7230628,11.180827 94.7834473,11.1420898 C94.8438317,11.1033527 94.9150387,11.0839844 94.9970703,11.0839844 L95.793457,11.0839844 C95.959799,11.0839844 96.0811357,11.0384119 96.1574707,10.9472656 C96.2338057,10.8561193 96.2719727,10.7000337 96.2719727,10.4790039 L96.2719727,9.36474609 L97.1538086,9.36474609 L97.1538086,10.4619141 C97.1538086,10.9563827 97.0427257,11.3363431 96.8205566,11.6018066 C96.5983876,11.8672702 96.2731141,12 95.8447266,12 L94.9970703,12 Z M95.027832,12 L94.8706055,12 C94.4991843,12 94.1733412,11.8632826 93.8930664,11.5898438 C93.6310208,11.8632826 93.3085957,12 92.9257812,12 L92.6010742,12 C92.5190426,12 92.4484052,11.9806317 92.3891602,11.9418945 C92.3276364,11.9031574 92.282064,11.850749 92.2524414,11.784668 C92.2228189,11.7208656 92.2080078,11.6468103 92.2080078,11.5625 L92.2080078,11.5249023 C92.2080078,11.3950189 92.2421872,11.2890629 92.3105469,11.2070312 C92.3811852,11.1249996 92.4780267,11.0839844 92.6010742,11.0839844 L92.9189453,11.0839844 C93.1012379,11.0839844 93.2356767,11.0292974 93.3222656,10.9199219 C93.4088546,10.8082677 93.4521484,10.6225599 93.4521484,10.362793 L93.4521484,7.32421875 L94.3237305,7.32421875 L94.3237305,10.3662109 C94.3237305,10.6236992 94.3704422,10.8071284 94.4638672,10.9165039 C94.5572921,11.0281581 94.7042633,11.0839844 94.9047852,11.0839844 L95.027832,11.0839844 C95.1508795,11.0839844 95.2465817,11.1249996 95.3149414,11.2070312 C95.3855798,11.2867843 95.4208984,11.3927402 95.4208984,11.5249023 L95.4208984,11.5625 C95.4208984,11.7493499 95.3559577,11.8792314 95.2260742,11.9521484 C95.1645505,11.9840496 95.0984704,12 95.027832,12 Z M90.7348633,13.1450195 C90.7348633,13.0083001 90.7827144,12.8915207 90.878418,12.7946777 C90.9741216,12.6978348 91.0903313,12.6494141 91.2270508,12.6494141 C91.2954105,12.6494141 91.3592119,12.6619465 91.418457,12.6870117 C91.4777021,12.7120769 91.5312498,12.7479653 91.5791016,12.7946777 C91.6269534,12.8413902 91.6628417,12.8943682 91.6867676,12.9536133 C91.7106935,13.0128584 91.7226562,13.0755205 91.7226562,13.1416016 C91.7226562,13.2122399 91.7106935,13.2771807 91.6867676,13.3364258 C91.6628417,13.3956709 91.6269534,13.4480792 91.5791016,13.4936523 C91.5472004,13.5255535 91.513021,13.5523274 91.4765625,13.5739746 C91.440104,13.5956219 91.4013674,13.6121419 91.3603516,13.6235352 C91.3193357,13.6349284 91.2760419,13.640625 91.2304688,13.640625 C91.162109,13.640625 91.0983076,13.6280926 91.0390625,13.6030273 C90.9798174,13.5779621 90.9262698,13.5420738 90.878418,13.4953613 C90.8305662,13.4486489 90.7946779,13.3956709 90.770752,13.3364258 C90.7468261,13.2771807 90.7348633,13.2133792 90.7348633,13.1450195 Z M89.6274414,13.1450195 C89.6274414,13.0083001 89.6752925,12.8915207 89.7709961,12.7946777 C89.8666997,12.6978348 89.9829095,12.6494141 90.1196289,12.6494141 C90.1652021,12.6494141 90.2090655,12.6551106 90.2512207,12.6665039 C90.2933759,12.6778972 90.3326821,12.6944172 90.3691406,12.7160645 C90.4055991,12.7377117 90.4397785,12.7644855 90.4716797,12.7963867 C90.5195315,12.8419599 90.5554198,12.8943682 90.5793457,12.9536133 C90.6032716,13.0128584 90.6152344,13.0755205 90.6152344,13.1416016 C90.6152344,13.1575522 90.6146647,13.1717936 90.6135254,13.1843262 C90.6123861,13.1968588 90.6106771,13.2099609 90.6083984,13.2236328 C90.6061198,13.2373048 90.6038412,13.2504068 90.6015625,13.2629395 C90.5992838,13.2754721 90.5958659,13.2874348 90.5913086,13.2988281 C90.5867513,13.3102214 90.582194,13.3221842 90.5776367,13.3347168 C90.5730794,13.3472494 90.5679525,13.3592122 90.5622559,13.3706055 C90.5565592,13.3819988 90.550293,13.3928222 90.543457,13.4030762 L90.5229492,13.4338379 C90.5161132,13.4440918 90.5081381,13.4543457 90.4990234,13.4645996 C90.4899088,13.4748536 90.4807943,13.4845377 90.4716797,13.4936523 C90.3736974,13.5916346 90.2574877,13.640625 90.1230469,13.640625 C89.9840488,13.640625 89.8666997,13.5922043 89.7709961,13.4953613 C89.6752925,13.3985184 89.6274414,13.281739 89.6274414,13.1450195 Z M92.6386719,12 L92.5668945,12 C92.3139636,12 92.0861013,11.963542 91.8833008,11.890625 C91.6805003,11.817708 91.5073249,11.7071948 91.3637695,11.559082 C91.0766587,11.8530288 90.6744818,12 90.1572266,12 L89.6069336,12 C89.5249019,12 89.453695,11.9806317 89.3933105,11.9418945 C89.3329261,11.9031574 89.2879233,11.8513187 89.2583008,11.786377 C89.2286782,11.7214352 89.2138672,11.6468103 89.2138672,11.5625 L89.2138672,11.5249023 C89.2138672,11.3950189 89.2486162,11.2890629 89.3181152,11.2070312 C89.3876143,11.1249996 89.4838861,11.0839844 89.6069336,11.0839844 L90.1743164,11.0839844 C90.4340833,11.0839844 90.6197911,11.0378423 90.7314453,10.9455566 C90.8430995,10.853271 90.8989258,10.7068695 90.8989258,10.5063477 L90.8989258,9.50146484 L91.8012695,9.50146484 L91.8012695,10.5063477 C91.8012695,10.7045908 91.8599441,10.8504227 91.9772949,10.9438477 C92.0946458,11.0372726 92.2900377,11.0839844 92.5634766,11.0839844 L92.6386719,11.0839844 C92.7617194,11.0839844 92.8579912,11.1249996 92.9274902,11.2070312 C92.9969893,11.2890629 93.0317383,11.3950189 93.0317383,11.5249023 L93.0317383,11.5625 C93.0317383,11.6468103 93.0169272,11.7214352 92.9873047,11.786377 C92.9576821,11.8513187 92.9126793,11.9031574 92.8522949,11.9418945 C92.7919105,11.9806317 92.7207035,12 92.6386719,12 Z M89.6411133,12 L89.5898438,12 C89.1455056,12 88.7467466,11.7926453 88.3935547,11.3779297 C88.1679676,11.7972026 87.7714872,12.0056966 87.2041016,12.003418 L85.9633789,12 C85.8403314,12 85.7440596,11.9589848 85.6745605,11.8769531 C85.6050615,11.7949215 85.5703125,11.6901048 85.5703125,11.5625 L85.5703125,11.5249023 C85.5703125,11.3950189 85.6050615,11.2890629 85.6745605,11.2070312 C85.7440596,11.1249996 85.8403314,11.0839844 85.9633789,11.0839844 L87.1425781,11.0839844 C87.2542323,11.0839844 87.3476559,11.0765789 87.4228516,11.0617676 C87.4980473,11.0469563 87.5567218,11.0247397 87.598877,10.9951172 C87.6410321,10.9654946 87.6712239,10.9324546 87.6894531,10.8959961 C87.7076824,10.8595376 87.7167969,10.8151044 87.7167969,10.7626953 C87.7167969,10.7558593 87.7150879,10.7456055 87.7116699,10.7319336 C87.7082519,10.7182617 87.7019857,10.7023113 87.6928711,10.684082 L87.6621094,10.6225586 C87.6507161,10.599772 87.635905,10.5741375 87.6176758,10.5456543 C87.5994465,10.5171711 87.5789389,10.487549 87.5561523,10.4567871 C87.5333658,10.4260252 87.5071616,10.3924155 87.4775391,10.355957 C87.4479165,10.3194985 87.4171551,10.2819012 87.3852539,10.2431641 L86.4589844,9.18701172 C86.3518875,9.06852154 86.2596033,8.95686901 86.1821289,8.85205078 C86.1000972,8.74495389 86.0659179,8.60595789 86.0795898,8.43505859 C86.0932618,8.27327393 86.1422522,8.13484758 86.2265625,8.01977539 C86.3108728,7.9047032 86.4259433,7.8209638 86.5717773,7.76855469 L88.9677734,6.93457031 L88.9677734,7.85742188 L87.050293,8.51367188 L88.8857422,10.5986328 C88.9837244,10.7080084 89.077148,10.8002926 89.1660156,10.8754883 C89.2548833,10.950684 89.3312171,11.0042316 89.3950195,11.0361328 C89.4588219,11.068034 89.5135089,11.0839844 89.559082,11.0839844 L89.6445312,11.0839844 C89.7265629,11.086263 89.7972002,11.1073403 89.8564453,11.1472168 C89.9156904,11.1870933 89.9601235,11.2395016 89.9897461,11.3044434 C90.0193686,11.3693851 90.0341797,11.4428707 90.0341797,11.5249023 L90.0341797,11.565918 C90.0341797,11.6912441 89.9994307,11.7949215 89.9299316,11.8769531 C89.8604326,11.9589848 89.7641608,12 89.6411133,12 Z M84.09375,13.1450195 C84.09375,13.0083001 84.1416011,12.8915207 84.2373047,12.7946777 C84.3330083,12.6978348 84.4492181,12.6494141 84.5859375,12.6494141 C84.6542972,12.6494141 84.7180987,12.6619465 84.7773438,12.6870117 C84.8365888,12.7120769 84.8901365,12.7479653 84.9379883,12.7946777 C84.9858401,12.8413902 85.0217284,12.8943682 85.0456543,12.9536133 C85.0695802,13.0128584 85.081543,13.0755205 85.081543,13.1416016 C85.081543,13.2122399 85.0695802,13.2771807 85.0456543,13.3364258 C85.0217284,13.3956709 84.9858401,13.4480792 84.9379883,13.4936523 C84.9060871,13.5255535 84.8719077,13.5523274 84.8354492,13.5739746 C84.7989907,13.5956219 84.7602541,13.6121419 84.7192383,13.6235352 C84.6782225,13.6349284 84.6349286,13.640625 84.5893555,13.640625 C84.5209958,13.640625 84.4571943,13.6280926 84.3979492,13.6030273 C84.3387041,13.5779621 84.2851565,13.5420738 84.2373047,13.4953613 C84.1894529,13.4486489 84.1535646,13.3956709 84.1296387,13.3364258 C84.1057128,13.2771807 84.09375,13.2133792 84.09375,13.1450195 Z M82.9863281,13.1450195 C82.9863281,13.0083001 83.0341792,12.8915207 83.1298828,12.7946777 C83.2255864,12.6978348 83.3417962,12.6494141 83.4785156,12.6494141 C83.5240888,12.6494141 83.5679523,12.6551106 83.6101074,12.6665039 C83.6522626,12.6778972 83.6915688,12.6944172 83.7280273,12.7160645 C83.7644859,12.7377117 83.7986652,12.7644855 83.8305664,12.7963867 C83.8784182,12.8419599 83.9143065,12.8943682 83.9382324,12.9536133 C83.9621583,13.0128584 83.9741211,13.0755205 83.9741211,13.1416016 C83.9741211,13.1575522 83.9735514,13.1717936 83.9724121,13.1843262 C83.9712728,13.1968588 83.9695638,13.2099609 83.9672852,13.2236328 C83.9650065,13.2373048 83.9627279,13.2504068 83.9604492,13.2629395 C83.9581706,13.2754721 83.9547526,13.2874348 83.9501953,13.2988281 C83.945638,13.3102214 83.9410808,13.3221842 83.9365234,13.3347168 C83.9319661,13.3472494 83.9268392,13.3592122 83.9211426,13.3706055 C83.9154459,13.3819988 83.9091797,13.3928222 83.9023438,13.4030762 L83.8818359,13.4338379 C83.875,13.4440918 83.8670248,13.4543457 83.8579102,13.4645996 C83.8487955,13.4748536 83.839681,13.4845377 83.8305664,13.4936523 C83.7325841,13.5916346 83.6163744,13.640625 83.4819336,13.640625 C83.3429355,13.640625 83.2255864,13.5922043 83.1298828,13.4953613 C83.0341792,13.3985184 82.9863281,13.281739 82.9863281,13.1450195 Z M85.9975586,12 L85.9257812,12 C85.6728503,12 85.444988,11.963542 85.2421875,11.890625 C85.039387,11.817708 84.8662117,11.7071948 84.7226562,11.559082 C84.4355454,11.8530288 84.0333685,12 83.5161133,12 L82.9658203,12 C82.8837887,12 82.8125817,11.9806317 82.7521973,11.9418945 C82.6918128,11.9031574 82.64681,11.8513187 82.6171875,11.786377 C82.587565,11.7214352 82.5727539,11.6468103 82.5727539,11.5625 L82.5727539,11.5249023 C82.5727539,11.3950189 82.6075029,11.2890629 82.677002,11.2070312 C82.746501,11.1249996 82.8427728,11.0839844 82.9658203,11.0839844 L83.5332031,11.0839844 C83.79297,11.0839844 83.9786778,11.0378423 84.090332,10.9455566 C84.2019862,10.853271 84.2578125,10.7068695 84.2578125,10.5063477 L84.2578125,9.50146484 L85.1601562,9.50146484 L85.1601562,10.5063477 C85.1601562,10.7045908 85.2188308,10.8504227 85.3361816,10.9438477 C85.4535325,11.0372726 85.6489244,11.0839844 85.9223633,11.0839844 L85.9975586,11.0839844 C86.1206061,11.0839844 86.2168779,11.1249996 86.286377,11.2070312 C86.355876,11.2890629 86.390625,11.3950189 86.390625,11.5249023 L86.390625,11.5625 C86.390625,11.6468103 86.375814,11.7214352 86.3461914,11.786377 C86.3165689,11.8513187 86.2715661,11.9031574 86.2111816,11.9418945 C86.1507972,11.9806317 86.0795903,12 85.9975586,12 Z M79.390625,7.42675781 C79.390625,7.38118467 79.3963216,7.33789083 79.4077148,7.296875 C79.4191081,7.25585917 79.4356281,7.21655292 79.4572754,7.17895508 C79.4789226,7.14135723 79.5056965,7.10774754 79.5375977,7.078125 C79.6333013,6.98014274 79.7483717,6.93115234 79.8828125,6.93115234 C80.0218106,6.93115234 80.1397293,6.97957308 80.2365723,7.07641602 C80.3334152,7.17325895 80.3818359,7.28889907 80.3818359,7.42333984 C80.3818359,7.56233793 80.3334152,7.68025668 80.2365723,7.77709961 C80.1397293,7.87394254 80.0240892,7.92236328 79.8896484,7.92236328 C79.7506503,7.92236328 79.6327316,7.87394254 79.5358887,7.77709961 C79.4390457,7.68025668 79.390625,7.56347725 79.390625,7.42675781 Z M79.940918,8.48632812 C79.940918,8.34960869 79.9887691,8.23282926 80.0844727,8.13598633 C80.1801763,8.0391434 80.296386,7.99072266 80.4331055,7.99072266 C80.5014652,7.99072266 80.5652666,8.00325508 80.6245117,8.02832031 C80.6837568,8.05338554 80.7373044,8.08927385 80.7851562,8.13598633 C80.8330081,8.1826988 80.8688964,8.23567679 80.8928223,8.29492188 C80.9167482,8.35416696 80.9287109,8.4168291 80.9287109,8.48291016 C80.9287109,8.55354853 80.9167482,8.61848929 80.8928223,8.67773438 C80.8688964,8.73697946 80.8330081,8.78938779 80.7851562,8.83496094 C80.753255,8.86686214 80.7190757,8.89363596 80.6826172,8.9152832 C80.6461587,8.93693045 80.6074221,8.95345046 80.5664062,8.96484375 C80.5253904,8.97623704 80.4820966,8.98193359 80.4365234,8.98193359 C80.3681637,8.98193359 80.3043623,8.96940117 80.2451172,8.94433594 C80.1858721,8.91927071 80.1323245,8.8833824 80.0844727,8.83666992 C80.0366209,8.78995745 80.0007325,8.73697946 79.9768066,8.67773438 C79.9528807,8.61848929 79.940918,8.55468784 79.940918,8.48632812 Z M78.8334961,8.48632812 C78.8334961,8.34960869 78.8813472,8.23282926 78.9770508,8.13598633 C79.0727544,8.0391434 79.1889642,7.99072266 79.3256836,7.99072266 C79.3712567,7.99072266 79.4151202,7.99641921 79.4572754,8.0078125 C79.4994305,8.01920579 79.5387368,8.0357258 79.5751953,8.05737305 C79.6116538,8.07902029 79.6458332,8.10579411 79.6777344,8.13769531 C79.7255862,8.18326846 79.7614745,8.23567679 79.7854004,8.29492188 C79.8093263,8.35416696 79.8212891,8.4168291 79.8212891,8.48291016 C79.8212891,8.49886076 79.8207194,8.51310215 79.8195801,8.52563477 C79.8184407,8.53816738 79.8167318,8.55126946 79.8144531,8.56494141 C79.8121745,8.57861335 79.8098958,8.59171543 79.8076172,8.60424805 C79.8053385,8.61678066 79.8019206,8.62874343 79.7973633,8.64013672 C79.792806,8.65153 79.7882487,8.66349278 79.7836914,8.67602539 C79.7791341,8.68855801 79.7740072,8.70052078 79.7683105,8.71191406 C79.7626139,8.72330735 79.7563477,8.73413081 79.7495117,8.74438477 L79.7290039,8.77514648 C79.7221679,8.78540044 79.7141928,8.79565425 79.7050781,8.8059082 C79.6959635,8.81616216 79.686849,8.82584631 79.6777344,8.83496094 C79.5797521,8.9329432 79.4635423,8.98193359 79.3291016,8.98193359 C79.1901035,8.98193359 79.0727544,8.93351285 78.9770508,8.83666992 C78.8813472,8.73982699 78.8334961,8.62304756 78.8334961,8.48632812 Z M83.003418,12 L82.7983398,12 C82.2993139,12 81.9495453,11.8655612 81.7490234,11.5966797 C81.6578771,11.7311205 81.5428067,11.8325192 81.4038086,11.9008789 C81.2648105,11.9692386 81.1064462,12.0022787 80.9287109,12 C80.7304678,12 80.5538745,11.9646813 80.3989258,11.894043 C80.2439771,11.8234046 80.1163742,11.7197272 80.0161133,11.5830078 C79.8338207,11.861004 79.5444356,12 79.1479492,12 C78.7218403,12 78.4142262,11.8632826 78.2250977,11.5898438 C78.0086252,11.8632826 77.6451848,12 77.1347656,12 L76.9125977,12 C76.830566,12 76.759359,11.9806317 76.6989746,11.9418945 C76.6385902,11.9031574 76.5935874,11.8513187 76.5639648,11.786377 C76.5343423,11.7214352 76.5195312,11.6468103 76.5195312,11.5625 L76.5195312,11.5249023 C76.5195312,11.3950189 76.5542803,11.2890629 76.6237793,11.2070312 C76.6932783,11.1249996 76.7895502,11.0839844 76.9125977,11.0839844 L77.1279297,11.0839844 C77.3671887,11.0839844 77.5363765,11.0435388 77.635498,10.9626465 C77.7346196,10.8817542 77.7830404,10.7535816 77.7807617,10.578125 L77.7705078,9.51171875 L78.6899414,9.51171875 L78.6865234,10.5507812 C78.6865234,10.7444671 78.7235511,10.8817542 78.7976074,10.9626465 C78.8716638,11.0435388 78.9941398,11.0839844 79.1650391,11.0839844 C79.2972012,11.0839844 79.3940427,11.0446781 79.4555664,10.9660645 C79.5170902,10.8874508 79.5478516,10.7478851 79.5478516,10.5473633 L79.5478516,9.51171875 L80.4536133,9.51171875 L80.4570312,10.5405273 C80.4593099,10.7387705 80.4974768,10.8789058 80.5715332,10.9609375 C80.6455896,11.0429692 80.7657869,11.0839844 80.9321289,11.0839844 C80.9822594,11.0839844 81.0255532,11.0760092 81.0620117,11.0600586 C81.0984702,11.044108 81.1309406,11.0161949 81.1594238,10.9763184 C81.187907,10.9364419 81.209554,10.8811852 81.2243652,10.8105469 C81.2391765,10.7399085 81.246582,10.6521815 81.246582,10.5473633 L81.25,9.50146484 L82.1489258,9.50146484 L82.1489258,10.5371094 C82.1489258,10.7285166 82.1990555,10.8675126 82.2993164,10.9541016 C82.3995773,11.0406905 82.5681954,11.0839844 82.8051758,11.0839844 L83.003418,11.0839844 C83.1264655,11.0839844 83.2227373,11.1249996 83.2922363,11.2070312 C83.3617354,11.2890629 83.3964844,11.3950189 83.3964844,11.5249023 L83.3964844,11.5625 C83.3964844,11.6901048 83.3617354,11.7949215 83.2922363,11.8769531 C83.2227373,11.9589848 83.1264655,12 83.003418,12 Z M76.9365234,12 L76.6699219,12 C76.4261056,12 76.2233081,11.9521489 76.0615234,11.8564453 C76.0319009,12.3987657 75.836509,12.8106268 75.4753418,13.092041 C75.1141746,13.3734552 74.6043327,13.5221353 73.9458008,13.5380859 L73.8569336,13.5415039 L73.7509766,13.5415039 C72.7757113,13.5415039 72.1285823,13.2179394 71.8095703,12.5708008 C71.6637362,12.276854 71.5908203,11.9236674 71.5908203,11.5112305 L71.5908203,10.2021484 L72.4760742,10.2021484 L72.4760742,11.5078125 C72.4760742,11.8883483 72.5786123,12.1691885 72.7836914,12.3503418 C72.9887706,12.531495 73.3134743,12.6220703 73.7578125,12.6220703 L73.8569336,12.6220703 L73.9321289,12.6186523 C74.3741884,12.6072591 74.6954743,12.5257983 74.8959961,12.3742676 C75.0965179,12.2227369 75.1967773,11.9965835 75.1967773,11.6958008 L75.1967773,9.52197266 L76.105957,9.52197266 L76.105957,10.4311523 C76.105957,10.5473639 76.1179198,10.646484 76.1418457,10.7285156 C76.1657716,10.8105473 76.2033689,10.8783363 76.2546387,10.9318848 C76.3059085,10.9854332 76.3708492,11.0241698 76.4494629,11.0480957 C76.5280766,11.0720216 76.6232091,11.0839844 76.7348633,11.0839844 L76.9365234,11.0839844 C77.0595709,11.0839844 77.1558428,11.1249996 77.2253418,11.2070312 C77.2948408,11.2890629 77.3295898,11.3950189 77.3295898,11.5249023 L77.3295898,11.5625 C77.3295898,11.6468103 77.3147788,11.7214352 77.2851562,11.786377 C77.2555337,11.8513187 77.2105309,11.9031574 77.1501465,11.9418945 C77.0897621,11.9806317 77.0185551,12 76.9365234,12 Z M73.2826886,9.75362474 C73.2826886,9.60734229 73.3338866,9.48239457 73.4362844,9.37877783 C73.5386821,9.2751611 73.6630203,9.22335351 73.8093027,9.22335351 C73.8580636,9.22335351 73.9049951,9.22944852 73.9500989,9.24163872 C73.9952027,9.25382892 74.0372582,9.27150446 74.0762669,9.29466584 C74.1152755,9.31782723 74.1518456,9.34647378 74.1859782,9.38060635 C74.237177,9.42936717 74.2755756,9.48544127 74.301175,9.54883033 C74.3267745,9.61221939 74.339574,9.67926451 74.339574,9.74996769 C74.339574,9.76703398 74.3389645,9.78227151 74.3377455,9.79568073 C74.3365264,9.80908996 74.3346979,9.82310848 74.3322599,9.83773673 C74.3298219,9.85236497 74.3273838,9.8663835 74.3249458,9.87979272 C74.3225078,9.89320194 74.3188508,9.90600147 74.3139747,9.91819167 C74.3090986,9.93038188 74.3042226,9.9431814 74.2993465,9.95659062 C74.2944704,9.96999985 74.2889849,9.98279937 74.2828898,9.99498957 C74.2767947,10.0071798 74.2700902,10.0187603 74.2627761,10.0297315 L74.2408338,10.0626449 C74.2335197,10.0736161 74.2249867,10.0845871 74.2152345,10.0955583 C74.2054824,10.1065294 74.1957303,10.116891 74.1859782,10.1266431 C74.0811424,10.2314789 73.9568042,10.283896 73.8129598,10.283896 C73.6642393,10.283896 73.5386821,10.2320884 73.4362844,10.1284716 C73.3338866,10.0248549 73.2826886,9.89990719 73.2826886,9.75362474 Z M68.121582,11.996582 L68.121582,7.35839844 L68.9931641,7.35839844 L68.9931641,11.996582 L68.121582,11.996582 Z M65.8896484,8.32226562 C65.8896484,8.18554619 65.9374995,8.06876676 66.0332031,7.97192383 C66.1289067,7.8750809 66.2451165,7.82666016 66.3818359,7.82666016 C66.4274091,7.82666016 66.4712726,7.83235671 66.5134277,7.84375 C66.5555829,7.85514329 66.5948891,7.8716633 66.6313477,7.89331055 C66.6678062,7.91495779 66.7019855,7.94173161 66.7338867,7.97363281 C66.7817385,8.01920596 66.8176268,8.07161429 66.8415527,8.13085938 C66.8654786,8.19010446 66.8774414,8.2527666 66.8774414,8.31884766 C66.8774414,8.33479826 66.8768718,8.34903965 66.8757324,8.36157227 C66.8745931,8.37410488 66.8728841,8.38720696 66.8706055,8.40087891 C66.8683268,8.41455085 66.8660482,8.42765293 66.8637695,8.44018555 C66.8614909,8.45271816 66.8580729,8.46468093 66.8535156,8.47607422 C66.8489583,8.4874675 66.8444011,8.49943028 66.8398438,8.51196289 C66.8352864,8.52449551 66.8301595,8.53645828 66.8244629,8.54785156 C66.8187662,8.55924485 66.8125,8.57006831 66.8056641,8.58032227 L66.7851562,8.61108398 C66.7783203,8.62133794 66.7703451,8.63159175 66.7612305,8.6418457 C66.7521158,8.65209966 66.7430013,8.66178381 66.7338867,8.67089844 C66.6359045,8.7688807 66.5196947,8.81787109 66.3852539,8.81787109 C66.2462558,8.81787109 66.1289067,8.76945035 66.0332031,8.67260742 C65.9374995,8.57576449 65.8896484,8.45898506 65.8896484,8.32226562 Z M65.2641602,12 C65.1411127,12 65.0448408,11.9589848 64.9753418,11.8769531 C64.9058428,11.7949215 64.8710938,11.6901048 64.8710938,11.5625 L64.8710938,11.5249023 C64.8710938,11.440592 64.8859048,11.3653975 64.9155273,11.2993164 C64.9451499,11.2332353 64.9901527,11.180827 65.0505371,11.1420898 C65.1109215,11.1033527 65.1821285,11.0839844 65.2641602,11.0839844 L66.0605469,11.0839844 C66.2268889,11.0839844 66.3482255,11.0384119 66.4245605,10.9472656 C66.5008956,10.8561193 66.5390625,10.7000337 66.5390625,10.4790039 L66.5390625,9.36474609 L67.4208984,9.36474609 L67.4208984,10.4619141 C67.4208984,10.9563827 67.3098156,11.3363431 67.0876465,11.6018066 C66.8654774,11.8672702 66.540204,12 66.1118164,12 L65.2641602,12 Z M65.284668,12 L65.2299805,12 C64.8221008,12 64.4620784,11.8382178 64.1499023,11.5146484 C64.0314122,11.6832691 63.8593761,11.8063147 63.6337891,11.8837891 C63.408202,11.9612634 63.1313493,12 62.8032227,12 L61.3642578,12 L61.3642578,11.0839844 L62.7587891,11.0839844 C62.7998049,11.0839844 62.8408201,11.0828451 62.8818359,11.0805664 C63.2988302,11.0668945 63.5050456,10.9791675 63.5004883,10.8173828 C63.495931,10.6874994 63.389975,10.5029309 63.1826172,10.2636719 L62.1640625,9.08789062 L62.7827148,8.41113281 L64.7207031,10.7421875 C64.8186854,10.8606777 64.9126786,10.9472654 65.0026855,11.0019531 C65.0926925,11.0566409 65.1764319,11.0839844 65.2539062,11.0839844 L65.284668,11.0839844 C65.4077155,11.0839844 65.5039873,11.1249996 65.5734863,11.2070312 C65.6429854,11.2890629 65.6777344,11.3950189 65.6777344,11.5249023 L65.6777344,11.5625 C65.6777344,11.6901048 65.6429854,11.7949215 65.5734863,11.8769531 C65.5039873,11.9589848 65.4077155,12 65.284668,12 Z M58.8862305,12.765625 C59.2644876,12.7679037 59.5390616,12.6949877 59.7099609,12.546875 C59.8808602,12.3987623 59.9663086,12.167482 59.9663086,11.8530273 L59.9663086,9.6484375 L60.8754883,9.64160156 L60.8754883,11.8461914 C60.8754883,12.4431996 60.7063005,12.8972152 60.3679199,13.208252 C60.0295393,13.5192887 59.5390657,13.675944 58.8964844,13.6782227 L58.4008789,13.6816406 L58.4008789,12.765625 L58.8862305,12.765625 Z M58.1411133,11.8291016 C58.1411133,12.4352244 57.9713559,12.8949366 57.6318359,13.208252 C57.292316,13.5215673 56.7989941,13.6770833 56.1518555,13.6748047 L55.659668,13.6748047 L55.659668,12.7587891 L56.1381836,12.7587891 C56.5118834,12.7610677 56.7858878,12.6995449 56.9602051,12.5742188 C57.1345224,12.4488926 57.2285156,12.2574883 57.2421875,12 L56.7602539,12 C56.3706035,12 56.0749522,11.8803723 55.873291,11.6411133 C55.6716299,11.4018543 55.5708008,11.0612001 55.5708008,10.6191406 C55.5730794,10.1748025 55.6841623,9.83357866 55.9040527,9.59545898 C56.1239432,9.3573393 56.4423807,9.23714194 56.859375,9.23486328 C57.0667328,9.23486328 57.2507316,9.26619435 57.411377,9.32885742 C57.5720223,9.3915205 57.7058914,9.48266542 57.8129883,9.60229492 C57.9200852,9.72192443 58.0015459,9.86889561 58.057373,10.0432129 C58.1132001,10.2175302 58.1411133,10.4174793 58.1411133,10.6430664 L58.1411133,11.8291016 Z M56.8457031,10.1098633 C56.6816398,10.1098633 56.5642907,10.1480302 56.4936523,10.2243652 C56.423014,10.3007003 56.3876953,10.4311514 56.3876953,10.6157227 C56.3876953,10.7319342 56.4013671,10.8242184 56.4287109,10.8925781 C56.4560548,10.9609378 56.4959307,11.0093586 56.5483398,11.0378418 C56.600749,11.066325 56.670247,11.0805664 56.7568359,11.0805664 L57.2763672,11.0805664 L57.2729492,10.6635742 C57.2729492,10.4607737 57.2387699,10.3177901 57.1704102,10.2346191 C57.1020504,10.1514482 56.9938158,10.1098633 56.8457031,10.1098633 Z M54.012207,13.1450195 C54.012207,13.0083001 54.0600581,12.8915207 54.1557617,12.7946777 C54.2514653,12.6978348 54.3676751,12.6494141 54.5043945,12.6494141 C54.5727542,12.6494141 54.6365557,12.6619465 54.6958008,12.6870117 C54.7550459,12.7120769 54.8085935,12.7479653 54.8564453,12.7946777 C54.9042971,12.8413902 54.9401854,12.8943682 54.9641113,12.9536133 C54.9880372,13.0128584 55,13.0755205 55,13.1416016 C55,13.2122399 54.9880372,13.2771807 54.9641113,13.3364258 C54.9401854,13.3956709 54.9042971,13.4480792 54.8564453,13.4936523 C54.8245441,13.5255535 54.7903648,13.5523274 54.7539062,13.5739746 C54.7174477,13.5956219 54.6787111,13.6121419 54.6376953,13.6235352 C54.5966795,13.6349284 54.5533856,13.640625 54.5078125,13.640625 C54.4394528,13.640625 54.3756513,13.6280926 54.3164062,13.6030273 C54.2571612,13.5779621 54.2036135,13.5420738 54.1557617,13.4953613 C54.1079099,13.4486489 54.0720216,13.3956709 54.0480957,13.3364258 C54.0241698,13.2771807 54.012207,13.2133792 54.012207,13.1450195 Z M52.9047852,13.1450195 C52.9047852,13.0083001 52.9526362,12.8915207 53.0483398,12.7946777 C53.1440434,12.6978348 53.2602532,12.6494141 53.3969727,12.6494141 C53.4425458,12.6494141 53.4864093,12.6551106 53.5285645,12.6665039 C53.5707196,12.6778972 53.6100259,12.6944172 53.6464844,12.7160645 C53.6829429,12.7377117 53.7171222,12.7644855 53.7490234,12.7963867 C53.7968752,12.8419599 53.8327636,12.8943682 53.8566895,12.9536133 C53.8806154,13.0128584 53.8925781,13.0755205 53.8925781,13.1416016 C53.8925781,13.1575522 53.8920085,13.1717936 53.8908691,13.1843262 C53.8897298,13.1968588 53.8880208,13.2099609 53.8857422,13.2236328 C53.8834635,13.2373048 53.8811849,13.2504068 53.8789062,13.2629395 C53.8766276,13.2754721 53.8732097,13.2874348 53.8686523,13.2988281 C53.864095,13.3102214 53.8595378,13.3221842 53.8549805,13.3347168 C53.8504232,13.3472494 53.8452963,13.3592122 53.8395996,13.3706055 C53.833903,13.3819988 53.8276368,13.3928222 53.8208008,13.4030762 L53.800293,13.4338379 C53.793457,13.4440918 53.7854818,13.4543457 53.7763672,13.4645996 C53.7672526,13.4748536 53.7581381,13.4845377 53.7490234,13.4936523 C53.6510412,13.5916346 53.5348314,13.640625 53.4003906,13.640625 C53.2613925,13.640625 53.1440434,13.5922043 53.0483398,13.4953613 C52.9526362,13.3985184 52.9047852,13.281739 52.9047852,13.1450195 Z M52.925293,12 C52.8022455,12 52.7059737,11.9589848 52.6364746,11.8769531 C52.5669756,11.7949215 52.5322266,11.6901048 52.5322266,11.5625 L52.5322266,11.5249023 C52.5322266,11.440592 52.5470376,11.3653975 52.5766602,11.2993164 C52.6062827,11.2332353 52.6512855,11.180827 52.7116699,11.1420898 C52.7720543,11.1033527 52.8432613,11.0839844 52.925293,11.0839844 L53.7216797,11.0839844 C53.8880217,11.0839844 54.0093583,11.0384119 54.0856934,10.9472656 C54.1620284,10.8561193 54.2001953,10.7000337 54.2001953,10.4790039 L54.2001953,9.36474609 L55.0820312,9.36474609 L55.0820312,10.4619141 C55.0820312,10.9563827 54.9709484,11.3363431 54.7487793,11.6018066 C54.5266102,11.8672702 54.2013368,12 53.7729492,12 L52.925293,12 Z M52.9492188,12 L52.8945312,12 C52.4866516,12 52.1266292,11.8382178 51.8144531,11.5146484 C51.6959629,11.6832691 51.5239269,11.8063147 51.2983398,11.8837891 C51.0727528,11.9612634 50.7959001,12 50.4677734,12 L49.0288086,12 L49.0288086,11.0839844 L50.4233398,11.0839844 C50.4643557,11.0839844 50.5053709,11.0828451 50.5463867,11.0805664 C50.963381,11.0668945 51.1695964,10.9791675 51.1650391,10.8173828 C51.1604817,10.6874994 51.0545258,10.5029309 50.847168,10.2636719 L49.8286133,9.08789062 L50.4472656,8.41113281 L52.3852539,10.7421875 C52.4832362,10.8606777 52.5772294,10.9472654 52.6672363,11.0019531 C52.7572433,11.0566409 52.8409827,11.0839844 52.918457,11.0839844 L52.9492188,11.0839844 C53.0722662,11.0839844 53.1685381,11.1249996 53.2380371,11.2070312 C53.3075362,11.2890629 53.3422852,11.3950189 53.3422852,11.5249023 L53.3422852,11.5625 C53.3422852,11.6901048 53.3075362,11.7949215 53.2380371,11.8769531 C53.1685381,11.9589848 53.0722662,12 52.9492188,12 Z M45.5561523,11.996582 L45.5561523,7.35839844 L46.4277344,7.35839844 L46.4277344,11.996582 L45.5561523,11.996582 Z M43.734375,8.37353516 C43.734375,8.23681572 43.7822261,8.12003629 43.8779297,8.02319336 C43.9736333,7.92635043 44.0898431,7.87792969 44.2265625,7.87792969 C44.2721356,7.87792969 44.3159991,7.88362625 44.3581543,7.89501953 C44.4003095,7.90641282 44.4396157,7.92293283 44.4760742,7.94458008 C44.5125327,7.96622732 44.5467121,7.99300114 44.5786133,8.02490234 C44.6264651,8.07047549 44.6623534,8.12288382 44.6862793,8.18212891 C44.7102052,8.24137399 44.722168,8.30403613 44.722168,8.37011719 C44.722168,8.38606779 44.7215983,8.40030918 44.720459,8.4128418 C44.7193197,8.42537441 44.7176107,8.43847649 44.715332,8.45214844 C44.7130534,8.46582038 44.7107748,8.47892246 44.7084961,8.49145508 C44.7062174,8.50398769 44.7027995,8.51595046 44.6982422,8.52734375 C44.6936849,8.53873704 44.6891276,8.55069981 44.6845703,8.56323242 C44.680013,8.57576504 44.6748861,8.58772781 44.6691895,8.59912109 C44.6634928,8.61051438 44.6572266,8.62133784 44.6503906,8.6315918 L44.6298828,8.66235352 C44.6230468,8.67260747 44.6150717,8.68286128 44.605957,8.69311523 C44.5968424,8.70336919 44.5877279,8.71305334 44.5786133,8.72216797 C44.480631,8.82015023 44.3644212,8.86914062 44.2299805,8.86914062 C44.0909824,8.86914062 43.9736333,8.82071989 43.8779297,8.72387695 C43.7822261,8.62703402 43.734375,8.51025459 43.734375,8.37353516 Z M42.855957,12.765625 C43.2342141,12.7679037 43.5087882,12.6949877 43.6796875,12.546875 C43.8505868,12.3987623 43.9360352,12.167482 43.9360352,11.8530273 L43.9360352,9.6484375 L44.8452148,9.64160156 L44.8452148,11.8461914 C44.8452148,12.4431996 44.6760271,12.8972152 44.3376465,13.208252 C43.9992659,13.5192887 43.5087923,13.675944 42.8662109,13.6782227 L42.3706055,13.6816406 L42.3706055,12.765625 L42.855957,12.765625 Z" id="دانلود-اپلیکیشن-اندر" fill="#FFFFFF" fill-rule="nonzero"></path>
                <path d="M87.168492,28.4315833 L87.168492,21.0052464 C87.168492,20.585058 87.3146423,20.2288166 87.6069473,19.9365116 C87.8992523,19.6442066 88.2554937,19.4980563 88.6756821,19.4980563 C89.0776015,19.4980563 89.4247085,19.6396394 89.7170135,19.9228099 C90.0093185,20.2059804 90.1646032,20.5485201 90.1828723,20.9504395 L90.1828723,27.9383211 C90.1828723,28.1575498 90.2331115,28.3174017 90.3335913,28.4178816 C90.4340711,28.5183614 90.593923,28.5686006 90.8131518,28.5686006 L93.1698491,28.5686006 C93.6265757,28.5868696 94.0010858,28.7421543 94.2933908,29.0344593 C94.5856958,29.3267643 94.7227118,29.6921401 94.7044427,30.1305976 C94.7044427,30.5142479 94.5674268,30.8476533 94.2933908,31.1308238 C94.0193549,31.4139943 93.6905167,31.5555774 93.3068664,31.5555774 C92.7405254,31.5738465 92.1833274,31.5829808 91.6352555,31.5829808 C91.0871836,31.5829808 90.53912,31.5738465 89.9910481,31.5555774 C89.2968237,31.5373083 88.6802521,31.2724109 88.1413147,30.7608771 C87.6023774,30.2493434 87.2872408,29.6464734 87.1958955,28.952249 C87.1958955,28.8609037 87.1913283,28.7741269 87.1821937,28.6919161 C87.1730592,28.6097054 87.168492,28.5229286 87.168492,28.4315833 Z M85.6338984,25.4994134 L85.6338984,30.0209838 C85.6338984,30.8978988 85.3415978,31.6286504 84.7569878,32.2132604 C84.1723778,32.7978704 83.4507606,33.090171 82.5921147,33.090171 L79.550331,33.090171 C79.2032188,33.0719019 78.8972166,32.9531548 78.6323151,32.733926 C78.3674137,32.5146973 78.1984274,32.2315311 78.1253512,31.8844189 C78.070544,31.5373067 78.116216,31.2084685 78.2623685,30.8978944 C78.408521,30.5873204 78.6460152,30.3680949 78.9748584,30.2402115 C79.0844727,30.1854043 79.1986527,30.1488667 79.3174016,30.1305976 C79.4361505,30.1123286 79.5503304,30.1031942 79.6599448,30.1031942 C80.0435951,30.0849251 80.4272397,30.0757907 80.81089,30.0757907 L81.9618352,30.0757907 C82.2176021,30.0757907 82.3957227,30.0301187 82.4962026,29.9387734 C82.5966824,29.8474281 82.6469216,29.6738746 82.6469216,29.4181077 L82.6469216,25.5816238 C82.6469216,25.2162425 82.7519671,24.8965387 82.9620614,24.6225028 C83.1721556,24.3484668 83.4507546,24.1657789 83.7978668,24.0744336 C84.2728624,23.9648192 84.6976118,24.0561632 85.0721275,24.3484682 C85.4466433,24.6407732 85.6338984,25.0244178 85.6338984,25.4994134 Z M81.112328,19.4706528 L81.112328,25.1842736 C81.112328,25.8145563 81.1031936,26.4402623 81.0849245,27.0614104 C81.0849245,27.6277514 80.8428631,28.0525007 80.3587329,28.3356712 C79.8746028,28.6188417 79.3859127,28.6325433 78.892648,28.3767764 C78.6551502,28.2488929 78.4678951,28.0753394 78.3308771,27.8561107 C78.1938591,27.6368819 78.1162168,27.3902533 78.0979477,27.1162174 L78.0979477,19.5528632 C78.0979477,19.205751 78.1938589,18.8951816 78.385684,18.6211457 C78.5775092,18.3471097 78.8378394,18.1644218 79.1666826,18.0730765 C79.6416782,17.926924 80.0801291,17.9999992 80.4820485,18.2923042 C80.8839679,18.5846092 81.0940589,18.9773882 81.112328,19.4706528 Z M85.6338984,21.0052464 C85.6338984,21.4071658 85.4877481,21.75884 85.1954431,22.0602795 C84.9031381,22.3617191 84.5560311,22.5124366 84.1541117,22.5124366 C83.7339233,22.5124366 83.3776819,22.3662863 83.0853769,22.0739813 C82.7930719,21.7816763 82.6469216,21.4254349 82.6469216,21.0052464 C82.6469216,20.6033271 82.7930719,20.2516529 83.0853769,19.9502133 C83.3776819,19.6487738 83.7247889,19.4980563 84.1267083,19.4980563 C84.5468967,19.4980563 84.9031381,19.6442066 85.1954431,19.9365116 C85.4877481,20.2288166 85.6338984,20.585058 85.6338984,21.0052464 Z M88.6482787,33.090171 C88.6482787,33.5103594 88.5021284,33.8666008 88.2098234,34.1589058 C87.9175184,34.4512108 87.5704114,34.5973611 87.168492,34.5973611 C86.7483036,34.5973611 86.3920622,34.4512108 86.0997572,34.1589058 C85.8074522,33.8666008 85.6613019,33.5103594 85.6613019,33.090171 C85.6613019,32.6882516 85.8074522,32.3411446 86.0997572,32.0488396 C86.3920622,31.7565346 86.7483036,31.6103843 87.168492,31.6103843 C87.5886805,31.6103843 87.9403546,31.7519674 88.2235251,32.0351379 C88.5066956,32.3183084 88.6482787,32.6699825 88.6482787,33.090171 Z M76.5633541,22.4302262 C76.5450851,21.9734996 76.3441284,21.6035567 75.9604781,21.3203862 C75.5768278,21.0372157 75.16578,20.950439 74.7273225,21.0600534 C74.3802103,21.1513987 74.1016113,21.3295194 73.8915171,21.5944208 C73.6814229,21.8593222 73.5763773,22.1835932 73.5763773,22.5672435 C73.5581083,23.2066607 73.5535411,23.8506355 73.5626756,24.4991872 C73.5718101,25.1477389 73.5763773,25.8008481 73.5763773,26.4585344 C73.5763773,26.6594941 73.5261382,26.8102116 73.4256583,26.9106914 C73.3251785,27.0111713 73.1653266,27.0614104 72.9460978,27.0614104 L70.5345936,27.0614104 C70.4797864,27.0614104 70.4295472,27.0659776 70.3838746,27.0751122 C70.3382019,27.0842467 70.2970971,27.0888139 70.260559,27.0888139 C69.8951778,27.1436211 69.5937428,27.3080402 69.3562449,27.5820761 C69.1187471,27.8561121 69,28.1758159 69,28.5411971 C69,28.8335021 69.068508,29.0938324 69.2055259,29.3221956 C69.3425439,29.5505589 69.529799,29.7286796 69.7672968,29.8565631 L69.7809985,29.8565631 C69.7901331,29.8565631 69.8038346,29.8656975 69.8221037,29.8839665 C69.8403728,29.8839665 69.8586416,29.8885337 69.8769106,29.8976682 L69.959121,29.9387734 C70.0504663,29.9753116 70.1463774,30.0027147 70.2468573,30.0209838 C70.3473371,30.0392529 70.4523827,30.0483873 70.5619971,30.0483873 C70.7446877,30.0666563 70.93651,30.0757907 71.1374696,30.0757907 L71.7129422,30.0757907 C72.0783235,30.0575216 72.4436993,30.0529545 72.8090805,30.062089 C73.1744618,30.0712235 73.5398376,30.0575219 73.9052188,30.0209838 C74.6177123,29.9661766 75.2342839,29.6647416 75.7549522,29.1166697 C76.2756204,28.5685978 76.5450851,27.9383246 76.5633541,27.2258312 L76.5633541,22.4302262 Z" id="cafebazaar-logotype" fill="#FFFFFF" fill-rule="evenodd"></path>
                <path d="M18.2324219,14.109592 C15.5699375,14.2997695 13.7892117,14.6714744 12.890191,15.2247179 C11.9911703,15.7779614 11.463868,16.2188207 11.3082682,16.547309 L11.3082682,16.5862088 C11.3082682,16.5948532 11.2996239,16.6078196 11.2823351,16.6251085 C11.4552237,16.8498637 11.6842976,17.0141054 11.9695638,17.1178385 C12.25483,17.2215717 12.6222127,17.2561489 13.0717231,17.2215712 C13.3656337,17.2042823 13.6595399,17.1783494 13.9534505,17.1437717 C14.2473611,17.109194 14.532623,17.0746168 14.8092448,17.0400391 C15.0167111,17.0054613 15.2284965,16.9752063 15.4446072,16.949273 C15.6607179,16.9233397 15.8811476,16.8930847 16.1059028,16.8585069 L16.4041341,16.8325738 C16.602956,16.8152849 16.8752515,16.7807077 17.2210286,16.7288411 C17.3593395,16.3311974 17.5149369,15.9076267 17.6878255,15.4581163 C17.8607141,15.008606 18.0422444,14.5591024 18.2324219,14.109592 Z M21.655599,8.45616319 C20.8430226,8.45616319 20.0650355,8.9834655 19.3216146,10.0380859 C18.5781936,11.0927064 17.9644483,12.2078211 17.4803602,13.3834635 C17.6532488,13.3661747 17.8347791,13.3532082 18.0249566,13.3445638 C18.2151341,13.3359194 18.413953,13.3229529 18.6214193,13.3056641 C19.0536408,12.4066434 19.5290773,11.6243342 20.0477431,10.9587131 C20.5664088,10.293092 21.1023555,9.96028646 21.655599,9.96028646 C22.1915536,9.96028646 22.7145338,10.293092 23.2245551,10.9587131 C23.7345765,11.6243342 24.1970465,12.4152877 24.6119792,13.3315972 C24.8194455,13.3315972 25.0139422,13.3402415 25.1954753,13.3575304 C25.3770083,13.3748192 25.5542164,13.3921078 25.727105,13.4093967 C25.2603058,12.2164654 24.6638491,11.0927064 23.937717,10.0380859 C23.2115849,8.9834655 22.4508865,8.45616319 21.655599,8.45616319 Z M31.7176649,16.6251085 C31.5793541,16.2966202 31.0823068,15.8514387 30.2265082,15.2895508 C29.3707097,14.7276628 27.6202389,14.3343472 24.9750434,14.109592 C25.1652209,14.5763912 25.342429,15.0345391 25.5066732,15.4840495 C25.6709173,15.9335598 25.8221926,16.3571305 25.9605035,16.7547743 C26.2717029,16.789352 26.5180655,16.8152849 26.6995985,16.8325738 C26.8811316,16.8498626 26.9718967,16.8671512 26.9718967,16.8844401 C27.1966519,16.901729 27.4170815,16.9233397 27.6331923,16.949273 C27.849303,16.9752063 28.0610884,17.0054613 28.2685547,17.0400391 C28.5451764,17.0746168 28.8304383,17.109194 29.124349,17.1437717 C29.4182596,17.1783494 29.7121658,17.2042823 30.0060764,17.2215712 C30.4382979,17.23886 30.7927142,17.208605 31.0693359,17.1308051 C31.3459577,17.0530053 31.5707095,16.90173 31.7435981,16.6769748 C31.7435981,16.659686 31.7392759,16.6467195 31.7306315,16.6380751 L31.7176649,16.6251085 Z M19.2178819,13.2797309 C19.5636591,13.262442 19.9223976,13.2494756 20.2941081,13.2408312 C20.6658186,13.2321867 21.0591342,13.2278646 21.4740668,13.2278646 L21.5,13.2278646 C21.9667992,13.2278646 22.4076585,13.2321867 22.8225911,13.2408312 C23.2375238,13.2494756 23.6438059,13.262442 24.0414497,13.2797309 C23.6610947,12.5017322 23.2634569,11.8404433 22.8485243,11.2958442 C22.4335917,10.7512451 22.0359539,10.4789497 21.655599,10.4789497 C21.2579552,10.4789497 20.8473509,10.746923 20.4237739,11.2828776 C20.0001968,11.8188323 19.5982369,12.4844434 19.2178819,13.2797309 Z M21.4740668,13.9799262 C20.9899788,13.9799262 20.5275087,13.9885705 20.0866428,14.0058594 C19.6457769,14.0231482 19.2265283,14.0404368 18.8288845,14.0577257 C18.6387071,14.4899472 18.4571768,14.9308065 18.2842882,15.3803168 C18.1113996,15.8298272 17.9471579,16.2620422 17.7915582,16.6769748 C18.3275128,16.6251082 18.9282917,16.5775646 19.5939128,16.5343424 C20.2595339,16.4911203 20.9035342,16.4695095 21.5259332,16.4695095 C22.1829098,16.4695095 22.8571652,16.4954424 23.5487196,16.547309 C24.240274,16.5991756 24.8540193,16.6510414 25.389974,16.702908 C25.2516631,16.2706865 25.0960657,15.8341493 24.9231771,15.3932834 C24.7502885,14.9524175 24.5774025,14.5158803 24.4045139,14.0836589 C23.9722924,14.0490811 23.5141445,14.0231482 23.0300564,14.0058594 C22.5459684,13.9885705 22.0359546,13.9799262 21.5,13.9799262 L21.4740668,13.9799262 Z M32.4437934,16.3139106 C32.5129488,16.5213769 32.5518482,16.6942629 32.5604926,16.8325738 C32.5691371,16.9708847 32.5648149,17.065972 32.547526,17.1178385 C32.547526,17.2388606 32.4783716,17.8396394 32.3400608,18.9201931 C32.2017499,20.0007469 31.9078437,21.3276469 31.4583333,22.9009332 C31.250867,23.6270653 31.0131488,24.3618308 30.7451714,25.1052517 C30.4771941,25.8486727 30.2005765,26.5531832 29.9153103,27.2188043 C29.6300441,27.8844253 29.3491044,28.4808821 29.0724826,29.0081923 C28.7958609,29.5355025 28.5451762,29.954751 28.320421,30.2659505 C27.957355,30.7500386 27.3176767,31.19522 26.4013672,31.6015082 C25.4850576,32.0077964 23.8512849,32.2109375 21.5,32.2109375 C19.1487151,32.2109375 17.5149424,32.0077964 16.5986328,31.6015082 C15.6823233,31.19522 15.042645,30.7500386 14.679579,30.2659505 C14.4548238,29.954751 14.2041391,29.5355025 13.9275174,29.0081923 C13.6508956,28.4808821 13.3699559,27.8844253 13.0846897,27.2188043 C12.7994235,26.5531832 12.5228059,25.8486727 12.2548286,25.1052517 C11.9868512,24.3618308 11.749133,23.6270653 11.5416667,22.9009332 C11.0921563,21.3276469 10.7982501,20.0007469 10.6599392,18.9201931 C10.5216284,17.8396394 10.452474,17.2388606 10.452474,17.1178385 C10.4351851,17.065972 10.4308629,16.9622404 10.4395074,16.8066406 C10.4481518,16.6510409 10.5043398,16.4608663 10.6080729,16.2361111 C10.850117,15.7001565 11.4249629,15.1642099 12.332628,14.6282552 C13.2402932,14.0923006 14.7573678,13.7033071 16.8838976,13.461263 C17.0394973,13.0809081 17.2642491,12.5795387 17.5581597,11.9571398 C17.8520703,11.3347408 18.2021645,10.7253177 18.6084527,10.128852 C19.0147409,9.53238634 19.4772109,9.01805048 19.9958767,8.58582899 C20.5145425,8.1536075 21.0677777,7.9375 21.655599,7.9375 C22.2434202,7.9375 22.7880111,8.1536075 23.289388,8.58582899 C23.7907649,9.01805048 24.2402686,9.53238634 24.6379123,10.128852 C25.0355561,10.7253177 25.377006,11.339063 25.6622721,11.9701063 C25.9475383,12.6011497 26.167968,13.1068413 26.3235677,13.4871962 C28.4155197,13.7465291 29.9023393,14.148489 30.7840712,14.6930881 C31.665803,15.2376872 32.2190382,15.7779559 32.4437934,16.3139106 Z" id="cafebazaar-icon" fill="#FFFFFF" fill-rule="evenodd"></path>
            </g>
        </g>
    </g>
</svg>