<?xml version="1.0" encoding="UTF-8"?>
<svg width="129px" height="40px" viewBox="0 0 129 40" version="1.1" xmlns="http://www.w3.org/2000/svg" xmlns:xlink="http://www.w3.org/1999/xlink">
    <!-- Generator: Sketch 46.2 (44496) - http://www.bohemiancoding.com/sketch -->
    <title>icon_appstore</title>
    <desc>Created with Sketch.</desc>
    <defs>
        <rect id="path-1" x="0" y="0" width="128" height="40" rx="4"></rect>
    </defs>
    <g id="Symbols" stroke="none" stroke-width="1" fill="none" fill-rule="evenodd">
        <g id="Icon-Base" transform="translate(-146.000000, -136.000000)">
            <g id="icon_appstore" transform="translate(147.000000, 136.000000)">
                <g id="Rectangle-12">
                    <use fill="#000000" fill-rule="evenodd" xlink:href="#path-1"></use>
                    <rect stroke-opacity="0.3" stroke="#FFFFFF" stroke-width="0.7" x="0.35" y="0.35" width="127.3" height="39.3" rx="4"></rect>
                </g>
                <g id="Group" stroke-width="1" fill-rule="evenodd" transform="translate(9.000000, 6.000000)" fill="#FFFFFF">
                    <path d="M18.128,13.784 C18.099,10.561 20.767,8.993 20.889,8.92 C19.378,6.717 17.036,6.416 16.213,6.392 C14.246,6.185 12.338,7.569 11.336,7.569 C10.314,7.569 8.771,6.412 7.108,6.446 C4.968,6.479 2.966,7.718 1.868,9.642 C-0.398,13.565 1.292,19.33 3.463,22.501 C4.549,24.054 5.818,25.788 7.479,25.727 C9.104,25.66 9.711,24.691 11.672,24.691 C13.615,24.691 14.185,25.727 15.879,25.688 C17.623,25.66 18.721,24.128 19.769,22.561 C21.024,20.781 21.528,19.028 21.548,18.938 C21.507,18.924 18.161,17.647 18.128,13.784 Z" id="Shape" fill-rule="nonzero"></path>
                    <path d="M14.928,4.306 C15.802,3.213 16.4,1.726 16.234,0.217 C14.969,0.273 13.387,1.092 12.476,2.161 C11.67,3.103 10.95,4.647 11.136,6.099 C12.557,6.205 14.016,5.382 14.928,4.306 Z" id="Shape" fill-rule="nonzero"></path>
                </g>
                <path d="M116.079102,12 L114.691406,12 L114.691406,11.0839844 L116.08252,11.0839844 C116.137207,11.0839844 116.189616,11.0828451 116.239746,11.0805664 C116.360515,11.0737304 116.462483,11.0617677 116.545654,11.0446777 C116.628825,11.0275878 116.690348,11.0059409 116.730225,10.9797363 C116.770101,10.9535318 116.798014,10.9273276 116.813965,10.901123 C116.829915,10.8749185 116.837891,10.845866 116.837891,10.8139648 C116.835612,10.7957356 116.831624,10.7757976 116.825928,10.7541504 C116.820231,10.7325031 116.812256,10.7080079 116.802002,10.6806641 C116.791748,10.6533202 116.778076,10.6242677 116.760986,10.5935059 C116.743896,10.562744 116.723958,10.5302736 116.701172,10.4960938 C116.678385,10.4619139 116.651611,10.4248863 116.62085,10.3850098 C116.590088,10.3451333 116.557617,10.3046877 116.523438,10.2636719 L115.504883,9.08789062 L116.109863,8.41113281 L117.237793,9.72363281 C117.56592,10.1041686 117.728841,10.4790021 117.726562,10.8481445 C117.726562,11.1056328 117.659913,11.3209627 117.526611,11.4941406 C117.39331,11.6673186 117.205323,11.7949215 116.962646,11.8769531 C116.719969,11.9589848 116.425457,12 116.079102,12 Z M113.098633,11.996582 L113.098633,7.35839844 L113.970215,7.35839844 L113.970215,11.996582 L113.098633,11.996582 Z M110.866699,8.32226562 C110.866699,8.18554619 110.91455,8.06876676 111.010254,7.97192383 C111.105958,7.8750809 111.222167,7.82666016 111.358887,7.82666016 C111.40446,7.82666016 111.448323,7.83235671 111.490479,7.84375 C111.532634,7.85514329 111.57194,7.8716633 111.608398,7.89331055 C111.644857,7.91495779 111.679036,7.94173161 111.710938,7.97363281 C111.758789,8.01920596 111.794678,8.07161429 111.818604,8.13085938 C111.842529,8.19010446 111.854492,8.2527666 111.854492,8.31884766 C111.854492,8.33479826 111.853923,8.34903965 111.852783,8.36157227 C111.851644,8.37410488 111.849935,8.38720696 111.847656,8.40087891 C111.845378,8.41455085 111.843099,8.42765293 111.84082,8.44018555 C111.838542,8.45271816 111.835124,8.46468093 111.830566,8.47607422 C111.826009,8.4874675 111.821452,8.49943028 111.816895,8.51196289 C111.812337,8.52449551 111.80721,8.53645828 111.801514,8.54785156 C111.795817,8.55924485 111.789551,8.57006831 111.782715,8.58032227 L111.762207,8.61108398 C111.755371,8.62133794 111.747396,8.63159175 111.738281,8.6418457 C111.729167,8.65209966 111.720052,8.66178381 111.710938,8.67089844 C111.612955,8.7688807 111.496745,8.81787109 111.362305,8.81787109 C111.223307,8.81787109 111.105958,8.76945035 111.010254,8.67260742 C110.91455,8.57576449 110.866699,8.45898506 110.866699,8.32226562 Z M110.241211,12 C110.118163,12 110.021892,11.9589848 109.952393,11.8769531 C109.882894,11.7949215 109.848145,11.6901048 109.848145,11.5625 L109.848145,11.5249023 C109.848145,11.440592 109.862956,11.3653975 109.892578,11.2993164 C109.922201,11.2332353 109.967203,11.180827 110.027588,11.1420898 C110.087972,11.1033527 110.159179,11.0839844 110.241211,11.0839844 L111.037598,11.0839844 C111.20394,11.0839844 111.325276,11.0384119 111.401611,10.9472656 C111.477946,10.8561193 111.516113,10.7000337 111.516113,10.4790039 L111.516113,9.36474609 L112.397949,9.36474609 L112.397949,10.4619141 C112.397949,10.9563827 112.286866,11.3363431 112.064697,11.6018066 C111.842528,11.8672702 111.517255,12 111.088867,12 L110.241211,12 Z M110.271973,12 L110.114746,12 C109.743325,12 109.417482,11.8632826 109.137207,11.5898438 C108.875161,11.8632826 108.552736,12 108.169922,12 L107.845215,12 C107.763183,12 107.692546,11.9806317 107.633301,11.9418945 C107.571777,11.9031574 107.526205,11.850749 107.496582,11.784668 C107.466959,11.7208656 107.452148,11.6468103 107.452148,11.5625 L107.452148,11.5249023 C107.452148,11.3950189 107.486328,11.2890629 107.554688,11.2070312 C107.625326,11.1249996 107.722167,11.0839844 107.845215,11.0839844 L108.163086,11.0839844 C108.345379,11.0839844 108.479817,11.0292974 108.566406,10.9199219 C108.652995,10.8082677 108.696289,10.6225599 108.696289,10.362793 L108.696289,7.32421875 L109.567871,7.32421875 L109.567871,10.3662109 C109.567871,10.6236992 109.614583,10.8071284 109.708008,10.9165039 C109.801433,11.0281581 109.948404,11.0839844 110.148926,11.0839844 L110.271973,11.0839844 C110.39502,11.0839844 110.490722,11.1249996 110.559082,11.2070312 C110.62972,11.2867843 110.665039,11.3927402 110.665039,11.5249023 L110.665039,11.5625 C110.665039,11.7493499 110.600098,11.8792314 110.470215,11.9521484 C110.408691,11.9840496 110.342611,12 110.271973,12 Z M107.872559,12 L107.48291,12 C107.451009,12.551435 107.265871,12.9689927 106.92749,13.2526855 C106.58911,13.5363784 106.114586,13.6770833 105.503906,13.6748047 L105.004883,13.6748047 L105.004883,12.7587891 L105.483398,12.7587891 C105.857098,12.7610677 106.131103,12.6995449 106.30542,12.5742188 C106.479737,12.4488926 106.57373,12.2574883 106.587402,12 L106.105469,12 C105.715818,12 105.420167,11.8803723 105.218506,11.6411133 C105.016845,11.4018543 104.916016,11.0612001 104.916016,10.6191406 C104.918294,10.1748025 105.029377,9.83357866 105.249268,9.59545898 C105.469158,9.3573393 105.787026,9.23771159 106.202881,9.23657227 C106.618736,9.23543294 106.936034,9.35619996 107.154785,9.59887695 C107.373536,9.84155395 107.484049,10.1896136 107.486328,10.6430664 L107.486328,11.0839844 L107.872559,11.0839844 C107.995606,11.0839844 108.091878,11.1249996 108.161377,11.2070312 C108.230876,11.2890629 108.265625,11.3950189 108.265625,11.5249023 L108.265625,11.5625 C108.265625,11.6901048 108.230876,11.7949215 108.161377,11.8769531 C108.091878,11.9589848 107.995606,12 107.872559,12 Z M106.190918,10.1098633 C106.026855,10.1098633 105.909506,10.1480302 105.838867,10.2243652 C105.768229,10.3007003 105.73291,10.4311514 105.73291,10.6157227 C105.73291,10.7319342 105.746582,10.8242184 105.773926,10.8925781 C105.80127,10.9609378 105.841146,11.0093586 105.893555,11.0378418 C105.945964,11.066325 106.015462,11.0805664 106.102051,11.0805664 L106.621582,11.0805664 L106.618164,10.6635742 C106.618164,10.4584951 106.583985,10.3143722 106.515625,10.2312012 C106.447265,10.1480302 106.339031,10.1075846 106.190918,10.1098633 Z M102.752441,12 L101.364746,12 L101.364746,11.0839844 L102.755859,11.0839844 C102.810547,11.0839844 102.862955,11.0828451 102.913086,11.0805664 C103.033855,11.0737304 103.135823,11.0617677 103.218994,11.0446777 C103.302165,11.0275878 103.363688,11.0059409 103.403564,10.9797363 C103.443441,10.9535318 103.471354,10.9273276 103.487305,10.901123 C103.503255,10.8749185 103.51123,10.845866 103.51123,10.8139648 C103.508952,10.7957356 103.504964,10.7757976 103.499268,10.7541504 C103.493571,10.7325031 103.485596,10.7080079 103.475342,10.6806641 C103.465088,10.6533202 103.451416,10.6242677 103.434326,10.5935059 C103.417236,10.562744 103.397298,10.5302736 103.374512,10.4960938 C103.351725,10.4619139 103.324951,10.4248863 103.294189,10.3850098 C103.263428,10.3451333 103.230957,10.3046877 103.196777,10.2636719 L102.178223,9.08789062 L102.783203,8.41113281 L103.911133,9.72363281 C104.239259,10.1041686 104.402181,10.4790021 104.399902,10.8481445 C104.399902,11.1056328 104.333253,11.3209627 104.199951,11.4941406 C104.06665,11.6673186 103.878663,11.7949215 103.635986,11.8769531 C103.393309,11.9589848 103.098797,12 102.752441,12 Z M97.8920898,11.996582 L97.8920898,7.35839844 L98.7636719,7.35839844 L98.7636719,11.996582 L97.8920898,11.996582 Z M95.5576172,14.0883789 C95.5576172,13.9516595 95.6066076,13.8354497 95.7045898,13.7397461 C95.750163,13.6918943 95.8025713,13.6554363 95.8618164,13.6303711 C95.9210615,13.6053059 95.9837236,13.5927734 96.0498047,13.5927734 C96.1888028,13.5927734 96.3067215,13.6411942 96.4035645,13.7380371 C96.5004074,13.83488 96.5488281,13.9505202 96.5488281,14.0849609 C96.5488281,14.223959 96.5004074,14.3418778 96.4035645,14.4387207 C96.3067215,14.5355636 96.1910814,14.5839844 96.0566406,14.5839844 C95.9176425,14.5839844 95.7997238,14.5355636 95.7028809,14.4387207 C95.6060379,14.3418778 95.5576172,14.2250983 95.5576172,14.0883789 Z M96.1079102,13.0288086 C96.1079102,12.8920892 96.1557612,12.7753097 96.2514648,12.6784668 C96.3471684,12.5816239 96.4633782,12.5332031 96.6000977,12.5332031 C96.6274415,12.5332031 96.6542154,12.5354817 96.6804199,12.5400391 C96.7066245,12.5445964 96.7316893,12.5508626 96.7556152,12.5588379 C96.7795411,12.5668132 96.802897,12.5764973 96.8256836,12.5878906 C96.8484702,12.5992839 96.8706867,12.612386 96.892334,12.6271973 C96.9139812,12.6420085 96.9339192,12.6596679 96.9521484,12.6801758 C97.0000002,12.7257489 97.0358886,12.7781573 97.0598145,12.8374023 C97.0837404,12.8966474 97.0957031,12.9593096 97.0957031,13.0253906 C97.0957031,13.1643887 97.047852,13.2823075 96.9521484,13.3791504 C96.8564448,13.4759933 96.7402351,13.5244141 96.6035156,13.5244141 C96.4645175,13.5244141 96.3471684,13.4759933 96.2514648,13.3791504 C96.1557612,13.2823075 96.1079102,13.165528 96.1079102,13.0288086 Z M95.0004883,13.0288086 C95.0004883,12.8920892 95.0483394,12.7753097 95.144043,12.6784668 C95.2397466,12.5816239 95.3559563,12.5332031 95.4926758,12.5332031 C95.5382489,12.5332031 95.5821124,12.5388997 95.6242676,12.550293 C95.6664227,12.5616863 95.705729,12.5782063 95.7421875,12.5998535 C95.778646,12.6215008 95.8128254,12.6482746 95.8447266,12.6801758 C95.8925784,12.7257489 95.9284667,12.7781573 95.9523926,12.8374023 C95.9763185,12.8966474 95.9882812,12.9593096 95.9882812,13.0253906 C95.9882812,13.1643887 95.9404302,13.2823075 95.8447266,13.3791504 C95.749023,13.4759933 95.6328132,13.5244141 95.4960938,13.5244141 C95.3570957,13.5244141 95.2397466,13.4759933 95.144043,13.3791504 C95.0483394,13.2823075 95.0004883,13.165528 95.0004883,13.0288086 Z M94.9970703,12 C94.8740228,12 94.777751,11.9589848 94.708252,11.8769531 C94.6387529,11.7949215 94.6040039,11.6901048 94.6040039,11.5625 L94.6040039,11.5249023 C94.6040039,11.440592 94.618815,11.3653975 94.6484375,11.2993164 C94.67806,11.2332353 94.7230628,11.180827 94.7834473,11.1420898 C94.8438317,11.1033527 94.9150387,11.0839844 94.9970703,11.0839844 L95.793457,11.0839844 C95.959799,11.0839844 96.0811357,11.0384119 96.1574707,10.9472656 C96.2338057,10.8561193 96.2719727,10.7000337 96.2719727,10.4790039 L96.2719727,9.36474609 L97.1538086,9.36474609 L97.1538086,10.4619141 C97.1538086,10.9563827 97.0427257,11.3363431 96.8205566,11.6018066 C96.5983876,11.8672702 96.2731141,12 95.8447266,12 L94.9970703,12 Z M95.027832,12 L94.8706055,12 C94.4991843,12 94.1733412,11.8632826 93.8930664,11.5898438 C93.6310208,11.8632826 93.3085957,12 92.9257812,12 L92.6010742,12 C92.5190426,12 92.4484052,11.9806317 92.3891602,11.9418945 C92.3276364,11.9031574 92.282064,11.850749 92.2524414,11.784668 C92.2228189,11.7208656 92.2080078,11.6468103 92.2080078,11.5625 L92.2080078,11.5249023 C92.2080078,11.3950189 92.2421872,11.2890629 92.3105469,11.2070312 C92.3811852,11.1249996 92.4780267,11.0839844 92.6010742,11.0839844 L92.9189453,11.0839844 C93.1012379,11.0839844 93.2356767,11.0292974 93.3222656,10.9199219 C93.4088546,10.8082677 93.4521484,10.6225599 93.4521484,10.362793 L93.4521484,7.32421875 L94.3237305,7.32421875 L94.3237305,10.3662109 C94.3237305,10.6236992 94.3704422,10.8071284 94.4638672,10.9165039 C94.5572921,11.0281581 94.7042633,11.0839844 94.9047852,11.0839844 L95.027832,11.0839844 C95.1508795,11.0839844 95.2465817,11.1249996 95.3149414,11.2070312 C95.3855798,11.2867843 95.4208984,11.3927402 95.4208984,11.5249023 L95.4208984,11.5625 C95.4208984,11.7493499 95.3559577,11.8792314 95.2260742,11.9521484 C95.1645505,11.9840496 95.0984704,12 95.027832,12 Z M90.7348633,13.1450195 C90.7348633,13.0083001 90.7827144,12.8915207 90.878418,12.7946777 C90.9741216,12.6978348 91.0903313,12.6494141 91.2270508,12.6494141 C91.2954105,12.6494141 91.3592119,12.6619465 91.418457,12.6870117 C91.4777021,12.7120769 91.5312498,12.7479653 91.5791016,12.7946777 C91.6269534,12.8413902 91.6628417,12.8943682 91.6867676,12.9536133 C91.7106935,13.0128584 91.7226562,13.0755205 91.7226562,13.1416016 C91.7226562,13.2122399 91.7106935,13.2771807 91.6867676,13.3364258 C91.6628417,13.3956709 91.6269534,13.4480792 91.5791016,13.4936523 C91.5472004,13.5255535 91.513021,13.5523274 91.4765625,13.5739746 C91.440104,13.5956219 91.4013674,13.6121419 91.3603516,13.6235352 C91.3193357,13.6349284 91.2760419,13.640625 91.2304688,13.640625 C91.162109,13.640625 91.0983076,13.6280926 91.0390625,13.6030273 C90.9798174,13.5779621 90.9262698,13.5420738 90.878418,13.4953613 C90.8305662,13.4486489 90.7946779,13.3956709 90.770752,13.3364258 C90.7468261,13.2771807 90.7348633,13.2133792 90.7348633,13.1450195 Z M89.6274414,13.1450195 C89.6274414,13.0083001 89.6752925,12.8915207 89.7709961,12.7946777 C89.8666997,12.6978348 89.9829095,12.6494141 90.1196289,12.6494141 C90.1652021,12.6494141 90.2090655,12.6551106 90.2512207,12.6665039 C90.2933759,12.6778972 90.3326821,12.6944172 90.3691406,12.7160645 C90.4055991,12.7377117 90.4397785,12.7644855 90.4716797,12.7963867 C90.5195315,12.8419599 90.5554198,12.8943682 90.5793457,12.9536133 C90.6032716,13.0128584 90.6152344,13.0755205 90.6152344,13.1416016 C90.6152344,13.1575522 90.6146647,13.1717936 90.6135254,13.1843262 C90.6123861,13.1968588 90.6106771,13.2099609 90.6083984,13.2236328 C90.6061198,13.2373048 90.6038412,13.2504068 90.6015625,13.2629395 C90.5992838,13.2754721 90.5958659,13.2874348 90.5913086,13.2988281 C90.5867513,13.3102214 90.582194,13.3221842 90.5776367,13.3347168 C90.5730794,13.3472494 90.5679525,13.3592122 90.5622559,13.3706055 C90.5565592,13.3819988 90.550293,13.3928222 90.543457,13.4030762 L90.5229492,13.4338379 C90.5161132,13.4440918 90.5081381,13.4543457 90.4990234,13.4645996 C90.4899088,13.4748536 90.4807943,13.4845377 90.4716797,13.4936523 C90.3736974,13.5916346 90.2574877,13.640625 90.1230469,13.640625 C89.9840488,13.640625 89.8666997,13.5922043 89.7709961,13.4953613 C89.6752925,13.3985184 89.6274414,13.281739 89.6274414,13.1450195 Z M92.6386719,12 L92.5668945,12 C92.3139636,12 92.0861013,11.963542 91.8833008,11.890625 C91.6805003,11.817708 91.5073249,11.7071948 91.3637695,11.559082 C91.0766587,11.8530288 90.6744818,12 90.1572266,12 L89.6069336,12 C89.5249019,12 89.453695,11.9806317 89.3933105,11.9418945 C89.3329261,11.9031574 89.2879233,11.8513187 89.2583008,11.786377 C89.2286782,11.7214352 89.2138672,11.6468103 89.2138672,11.5625 L89.2138672,11.5249023 C89.2138672,11.3950189 89.2486162,11.2890629 89.3181152,11.2070312 C89.3876143,11.1249996 89.4838861,11.0839844 89.6069336,11.0839844 L90.1743164,11.0839844 C90.4340833,11.0839844 90.6197911,11.0378423 90.7314453,10.9455566 C90.8430995,10.853271 90.8989258,10.7068695 90.8989258,10.5063477 L90.8989258,9.50146484 L91.8012695,9.50146484 L91.8012695,10.5063477 C91.8012695,10.7045908 91.8599441,10.8504227 91.9772949,10.9438477 C92.0946458,11.0372726 92.2900377,11.0839844 92.5634766,11.0839844 L92.6386719,11.0839844 C92.7617194,11.0839844 92.8579912,11.1249996 92.9274902,11.2070312 C92.9969893,11.2890629 93.0317383,11.3950189 93.0317383,11.5249023 L93.0317383,11.5625 C93.0317383,11.6468103 93.0169272,11.7214352 92.9873047,11.786377 C92.9576821,11.8513187 92.9126793,11.9031574 92.8522949,11.9418945 C92.7919105,11.9806317 92.7207035,12 92.6386719,12 Z M89.6411133,12 L89.5898438,12 C89.1455056,12 88.7467466,11.7926453 88.3935547,11.3779297 C88.1679676,11.7972026 87.7714872,12.0056966 87.2041016,12.003418 L85.9633789,12 C85.8403314,12 85.7440596,11.9589848 85.6745605,11.8769531 C85.6050615,11.7949215 85.5703125,11.6901048 85.5703125,11.5625 L85.5703125,11.5249023 C85.5703125,11.3950189 85.6050615,11.2890629 85.6745605,11.2070312 C85.7440596,11.1249996 85.8403314,11.0839844 85.9633789,11.0839844 L87.1425781,11.0839844 C87.2542323,11.0839844 87.3476559,11.0765789 87.4228516,11.0617676 C87.4980473,11.0469563 87.5567218,11.0247397 87.598877,10.9951172 C87.6410321,10.9654946 87.6712239,10.9324546 87.6894531,10.8959961 C87.7076824,10.8595376 87.7167969,10.8151044 87.7167969,10.7626953 C87.7167969,10.7558593 87.7150879,10.7456055 87.7116699,10.7319336 C87.7082519,10.7182617 87.7019857,10.7023113 87.6928711,10.684082 L87.6621094,10.6225586 C87.6507161,10.599772 87.635905,10.5741375 87.6176758,10.5456543 C87.5994465,10.5171711 87.5789389,10.487549 87.5561523,10.4567871 C87.5333658,10.4260252 87.5071616,10.3924155 87.4775391,10.355957 C87.4479165,10.3194985 87.4171551,10.2819012 87.3852539,10.2431641 L86.4589844,9.18701172 C86.3518875,9.06852154 86.2596033,8.95686901 86.1821289,8.85205078 C86.1000972,8.74495389 86.0659179,8.60595789 86.0795898,8.43505859 C86.0932618,8.27327393 86.1422522,8.13484758 86.2265625,8.01977539 C86.3108728,7.9047032 86.4259433,7.8209638 86.5717773,7.76855469 L88.9677734,6.93457031 L88.9677734,7.85742188 L87.050293,8.51367188 L88.8857422,10.5986328 C88.9837244,10.7080084 89.077148,10.8002926 89.1660156,10.8754883 C89.2548833,10.950684 89.3312171,11.0042316 89.3950195,11.0361328 C89.4588219,11.068034 89.5135089,11.0839844 89.559082,11.0839844 L89.6445312,11.0839844 C89.7265629,11.086263 89.7972002,11.1073403 89.8564453,11.1472168 C89.9156904,11.1870933 89.9601235,11.2395016 89.9897461,11.3044434 C90.0193686,11.3693851 90.0341797,11.4428707 90.0341797,11.5249023 L90.0341797,11.565918 C90.0341797,11.6912441 89.9994307,11.7949215 89.9299316,11.8769531 C89.8604326,11.9589848 89.7641608,12 89.6411133,12 Z M84.09375,13.1450195 C84.09375,13.0083001 84.1416011,12.8915207 84.2373047,12.7946777 C84.3330083,12.6978348 84.4492181,12.6494141 84.5859375,12.6494141 C84.6542972,12.6494141 84.7180987,12.6619465 84.7773438,12.6870117 C84.8365888,12.7120769 84.8901365,12.7479653 84.9379883,12.7946777 C84.9858401,12.8413902 85.0217284,12.8943682 85.0456543,12.9536133 C85.0695802,13.0128584 85.081543,13.0755205 85.081543,13.1416016 C85.081543,13.2122399 85.0695802,13.2771807 85.0456543,13.3364258 C85.0217284,13.3956709 84.9858401,13.4480792 84.9379883,13.4936523 C84.9060871,13.5255535 84.8719077,13.5523274 84.8354492,13.5739746 C84.7989907,13.5956219 84.7602541,13.6121419 84.7192383,13.6235352 C84.6782225,13.6349284 84.6349286,13.640625 84.5893555,13.640625 C84.5209958,13.640625 84.4571943,13.6280926 84.3979492,13.6030273 C84.3387041,13.5779621 84.2851565,13.5420738 84.2373047,13.4953613 C84.1894529,13.4486489 84.1535646,13.3956709 84.1296387,13.3364258 C84.1057128,13.2771807 84.09375,13.2133792 84.09375,13.1450195 Z M82.9863281,13.1450195 C82.9863281,13.0083001 83.0341792,12.8915207 83.1298828,12.7946777 C83.2255864,12.6978348 83.3417962,12.6494141 83.4785156,12.6494141 C83.5240888,12.6494141 83.5679523,12.6551106 83.6101074,12.6665039 C83.6522626,12.6778972 83.6915688,12.6944172 83.7280273,12.7160645 C83.7644859,12.7377117 83.7986652,12.7644855 83.8305664,12.7963867 C83.8784182,12.8419599 83.9143065,12.8943682 83.9382324,12.9536133 C83.9621583,13.0128584 83.9741211,13.0755205 83.9741211,13.1416016 C83.9741211,13.1575522 83.9735514,13.1717936 83.9724121,13.1843262 C83.9712728,13.1968588 83.9695638,13.2099609 83.9672852,13.2236328 C83.9650065,13.2373048 83.9627279,13.2504068 83.9604492,13.2629395 C83.9581706,13.2754721 83.9547526,13.2874348 83.9501953,13.2988281 C83.945638,13.3102214 83.9410808,13.3221842 83.9365234,13.3347168 C83.9319661,13.3472494 83.9268392,13.3592122 83.9211426,13.3706055 C83.9154459,13.3819988 83.9091797,13.3928222 83.9023438,13.4030762 L83.8818359,13.4338379 C83.875,13.4440918 83.8670248,13.4543457 83.8579102,13.4645996 C83.8487955,13.4748536 83.839681,13.4845377 83.8305664,13.4936523 C83.7325841,13.5916346 83.6163744,13.640625 83.4819336,13.640625 C83.3429355,13.640625 83.2255864,13.5922043 83.1298828,13.4953613 C83.0341792,13.3985184 82.9863281,13.281739 82.9863281,13.1450195 Z M85.9975586,12 L85.9257812,12 C85.6728503,12 85.444988,11.963542 85.2421875,11.890625 C85.039387,11.817708 84.8662117,11.7071948 84.7226562,11.559082 C84.4355454,11.8530288 84.0333685,12 83.5161133,12 L82.9658203,12 C82.8837887,12 82.8125817,11.9806317 82.7521973,11.9418945 C82.6918128,11.9031574 82.64681,11.8513187 82.6171875,11.786377 C82.587565,11.7214352 82.5727539,11.6468103 82.5727539,11.5625 L82.5727539,11.5249023 C82.5727539,11.3950189 82.6075029,11.2890629 82.677002,11.2070312 C82.746501,11.1249996 82.8427728,11.0839844 82.9658203,11.0839844 L83.5332031,11.0839844 C83.79297,11.0839844 83.9786778,11.0378423 84.090332,10.9455566 C84.2019862,10.853271 84.2578125,10.7068695 84.2578125,10.5063477 L84.2578125,9.50146484 L85.1601562,9.50146484 L85.1601562,10.5063477 C85.1601562,10.7045908 85.2188308,10.8504227 85.3361816,10.9438477 C85.4535325,11.0372726 85.6489244,11.0839844 85.9223633,11.0839844 L85.9975586,11.0839844 C86.1206061,11.0839844 86.2168779,11.1249996 86.286377,11.2070312 C86.355876,11.2890629 86.390625,11.3950189 86.390625,11.5249023 L86.390625,11.5625 C86.390625,11.6468103 86.375814,11.7214352 86.3461914,11.786377 C86.3165689,11.8513187 86.2715661,11.9031574 86.2111816,11.9418945 C86.1507972,11.9806317 86.0795903,12 85.9975586,12 Z M79.390625,7.42675781 C79.390625,7.38118467 79.3963216,7.33789083 79.4077148,7.296875 C79.4191081,7.25585917 79.4356281,7.21655292 79.4572754,7.17895508 C79.4789226,7.14135723 79.5056965,7.10774754 79.5375977,7.078125 C79.6333013,6.98014274 79.7483717,6.93115234 79.8828125,6.93115234 C80.0218106,6.93115234 80.1397293,6.97957308 80.2365723,7.07641602 C80.3334152,7.17325895 80.3818359,7.28889907 80.3818359,7.42333984 C80.3818359,7.56233793 80.3334152,7.68025668 80.2365723,7.77709961 C80.1397293,7.87394254 80.0240892,7.92236328 79.8896484,7.92236328 C79.7506503,7.92236328 79.6327316,7.87394254 79.5358887,7.77709961 C79.4390457,7.68025668 79.390625,7.56347725 79.390625,7.42675781 Z M79.940918,8.48632812 C79.940918,8.34960869 79.9887691,8.23282926 80.0844727,8.13598633 C80.1801763,8.0391434 80.296386,7.99072266 80.4331055,7.99072266 C80.5014652,7.99072266 80.5652666,8.00325508 80.6245117,8.02832031 C80.6837568,8.05338554 80.7373044,8.08927385 80.7851562,8.13598633 C80.8330081,8.1826988 80.8688964,8.23567679 80.8928223,8.29492188 C80.9167482,8.35416696 80.9287109,8.4168291 80.9287109,8.48291016 C80.9287109,8.55354853 80.9167482,8.61848929 80.8928223,8.67773438 C80.8688964,8.73697946 80.8330081,8.78938779 80.7851562,8.83496094 C80.753255,8.86686214 80.7190757,8.89363596 80.6826172,8.9152832 C80.6461587,8.93693045 80.6074221,8.95345046 80.5664062,8.96484375 C80.5253904,8.97623704 80.4820966,8.98193359 80.4365234,8.98193359 C80.3681637,8.98193359 80.3043623,8.96940117 80.2451172,8.94433594 C80.1858721,8.91927071 80.1323245,8.8833824 80.0844727,8.83666992 C80.0366209,8.78995745 80.0007325,8.73697946 79.9768066,8.67773438 C79.9528807,8.61848929 79.940918,8.55468784 79.940918,8.48632812 Z M78.8334961,8.48632812 C78.8334961,8.34960869 78.8813472,8.23282926 78.9770508,8.13598633 C79.0727544,8.0391434 79.1889642,7.99072266 79.3256836,7.99072266 C79.3712567,7.99072266 79.4151202,7.99641921 79.4572754,8.0078125 C79.4994305,8.01920579 79.5387368,8.0357258 79.5751953,8.05737305 C79.6116538,8.07902029 79.6458332,8.10579411 79.6777344,8.13769531 C79.7255862,8.18326846 79.7614745,8.23567679 79.7854004,8.29492188 C79.8093263,8.35416696 79.8212891,8.4168291 79.8212891,8.48291016 C79.8212891,8.49886076 79.8207194,8.51310215 79.8195801,8.52563477 C79.8184407,8.53816738 79.8167318,8.55126946 79.8144531,8.56494141 C79.8121745,8.57861335 79.8098958,8.59171543 79.8076172,8.60424805 C79.8053385,8.61678066 79.8019206,8.62874343 79.7973633,8.64013672 C79.792806,8.65153 79.7882487,8.66349278 79.7836914,8.67602539 C79.7791341,8.68855801 79.7740072,8.70052078 79.7683105,8.71191406 C79.7626139,8.72330735 79.7563477,8.73413081 79.7495117,8.74438477 L79.7290039,8.77514648 C79.7221679,8.78540044 79.7141928,8.79565425 79.7050781,8.8059082 C79.6959635,8.81616216 79.686849,8.82584631 79.6777344,8.83496094 C79.5797521,8.9329432 79.4635423,8.98193359 79.3291016,8.98193359 C79.1901035,8.98193359 79.0727544,8.93351285 78.9770508,8.83666992 C78.8813472,8.73982699 78.8334961,8.62304756 78.8334961,8.48632812 Z M83.003418,12 L82.7983398,12 C82.2993139,12 81.9495453,11.8655612 81.7490234,11.5966797 C81.6578771,11.7311205 81.5428067,11.8325192 81.4038086,11.9008789 C81.2648105,11.9692386 81.1064462,12.0022787 80.9287109,12 C80.7304678,12 80.5538745,11.9646813 80.3989258,11.894043 C80.2439771,11.8234046 80.1163742,11.7197272 80.0161133,11.5830078 C79.8338207,11.861004 79.5444356,12 79.1479492,12 C78.7218403,12 78.4142262,11.8632826 78.2250977,11.5898438 C78.0086252,11.8632826 77.6451848,12 77.1347656,12 L76.9125977,12 C76.830566,12 76.759359,11.9806317 76.6989746,11.9418945 C76.6385902,11.9031574 76.5935874,11.8513187 76.5639648,11.786377 C76.5343423,11.7214352 76.5195312,11.6468103 76.5195312,11.5625 L76.5195312,11.5249023 C76.5195312,11.3950189 76.5542803,11.2890629 76.6237793,11.2070312 C76.6932783,11.1249996 76.7895502,11.0839844 76.9125977,11.0839844 L77.1279297,11.0839844 C77.3671887,11.0839844 77.5363765,11.0435388 77.635498,10.9626465 C77.7346196,10.8817542 77.7830404,10.7535816 77.7807617,10.578125 L77.7705078,9.51171875 L78.6899414,9.51171875 L78.6865234,10.5507812 C78.6865234,10.7444671 78.7235511,10.8817542 78.7976074,10.9626465 C78.8716638,11.0435388 78.9941398,11.0839844 79.1650391,11.0839844 C79.2972012,11.0839844 79.3940427,11.0446781 79.4555664,10.9660645 C79.5170902,10.8874508 79.5478516,10.7478851 79.5478516,10.5473633 L79.5478516,9.51171875 L80.4536133,9.51171875 L80.4570312,10.5405273 C80.4593099,10.7387705 80.4974768,10.8789058 80.5715332,10.9609375 C80.6455896,11.0429692 80.7657869,11.0839844 80.9321289,11.0839844 C80.9822594,11.0839844 81.0255532,11.0760092 81.0620117,11.0600586 C81.0984702,11.044108 81.1309406,11.0161949 81.1594238,10.9763184 C81.187907,10.9364419 81.209554,10.8811852 81.2243652,10.8105469 C81.2391765,10.7399085 81.246582,10.6521815 81.246582,10.5473633 L81.25,9.50146484 L82.1489258,9.50146484 L82.1489258,10.5371094 C82.1489258,10.7285166 82.1990555,10.8675126 82.2993164,10.9541016 C82.3995773,11.0406905 82.5681954,11.0839844 82.8051758,11.0839844 L83.003418,11.0839844 C83.1264655,11.0839844 83.2227373,11.1249996 83.2922363,11.2070312 C83.3617354,11.2890629 83.3964844,11.3950189 83.3964844,11.5249023 L83.3964844,11.5625 C83.3964844,11.6901048 83.3617354,11.7949215 83.2922363,11.8769531 C83.2227373,11.9589848 83.1264655,12 83.003418,12 Z M76.9365234,12 L76.6699219,12 C76.4261056,12 76.2233081,11.9521489 76.0615234,11.8564453 C76.0319009,12.3987657 75.836509,12.8106268 75.4753418,13.092041 C75.1141746,13.3734552 74.6043327,13.5221353 73.9458008,13.5380859 L73.8569336,13.5415039 L73.7509766,13.5415039 C72.7757113,13.5415039 72.1285823,13.2179394 71.8095703,12.5708008 C71.6637362,12.276854 71.5908203,11.9236674 71.5908203,11.5112305 L71.5908203,10.2021484 L72.4760742,10.2021484 L72.4760742,11.5078125 C72.4760742,11.8883483 72.5786123,12.1691885 72.7836914,12.3503418 C72.9887706,12.531495 73.3134743,12.6220703 73.7578125,12.6220703 L73.8569336,12.6220703 L73.9321289,12.6186523 C74.3741884,12.6072591 74.6954743,12.5257983 74.8959961,12.3742676 C75.0965179,12.2227369 75.1967773,11.9965835 75.1967773,11.6958008 L75.1967773,9.52197266 L76.105957,9.52197266 L76.105957,10.4311523 C76.105957,10.5473639 76.1179198,10.646484 76.1418457,10.7285156 C76.1657716,10.8105473 76.2033689,10.8783363 76.2546387,10.9318848 C76.3059085,10.9854332 76.3708492,11.0241698 76.4494629,11.0480957 C76.5280766,11.0720216 76.6232091,11.0839844 76.7348633,11.0839844 L76.9365234,11.0839844 C77.0595709,11.0839844 77.1558428,11.1249996 77.2253418,11.2070312 C77.2948408,11.2890629 77.3295898,11.3950189 77.3295898,11.5249023 L77.3295898,11.5625 C77.3295898,11.6468103 77.3147788,11.7214352 77.2851562,11.786377 C77.2555337,11.8513187 77.2105309,11.9031574 77.1501465,11.9418945 C77.0897621,11.9806317 77.0185551,12 76.9365234,12 Z M73.2826886,9.75362474 C73.2826886,9.60734229 73.3338866,9.48239457 73.4362844,9.37877783 C73.5386821,9.2751611 73.6630203,9.22335351 73.8093027,9.22335351 C73.8580636,9.22335351 73.9049951,9.22944852 73.9500989,9.24163872 C73.9952027,9.25382892 74.0372582,9.27150446 74.0762669,9.29466584 C74.1152755,9.31782723 74.1518456,9.34647378 74.1859782,9.38060635 C74.237177,9.42936717 74.2755756,9.48544127 74.301175,9.54883033 C74.3267745,9.61221939 74.339574,9.67926451 74.339574,9.74996769 C74.339574,9.76703398 74.3389645,9.78227151 74.3377455,9.79568073 C74.3365264,9.80908996 74.3346979,9.82310848 74.3322599,9.83773673 C74.3298219,9.85236497 74.3273838,9.8663835 74.3249458,9.87979272 C74.3225078,9.89320194 74.3188508,9.90600147 74.3139747,9.91819167 C74.3090986,9.93038188 74.3042226,9.9431814 74.2993465,9.95659062 C74.2944704,9.96999985 74.2889849,9.98279937 74.2828898,9.99498957 C74.2767947,10.0071798 74.2700902,10.0187603 74.2627761,10.0297315 L74.2408338,10.0626449 C74.2335197,10.0736161 74.2249867,10.0845871 74.2152345,10.0955583 C74.2054824,10.1065294 74.1957303,10.116891 74.1859782,10.1266431 C74.0811424,10.2314789 73.9568042,10.283896 73.8129598,10.283896 C73.6642393,10.283896 73.5386821,10.2320884 73.4362844,10.1284716 C73.3338866,10.0248549 73.2826886,9.89990719 73.2826886,9.75362474 Z M61.4770508,12 L60.4858398,12 L60.4858398,8.30175781 L61.4770508,8.30175781 L61.4770508,12 Z M60.4277344,7.34472656 C60.4277344,7.19661384 60.4772944,7.07470751 60.576416,6.97900391 C60.6755376,6.8833003 60.810546,6.83544922 60.9814453,6.83544922 C61.0657556,6.83544922 61.1420895,6.84798165 61.2104492,6.87304688 C61.2788089,6.8981121 61.3369138,6.93343076 61.3847656,6.97900391 C61.4326174,7.02457705 61.4696451,7.07869435 61.4958496,7.14135742 C61.5220542,7.2040205 61.5351562,7.27180953 61.5351562,7.34472656 C61.5351562,7.41992225 61.5220542,7.4888506 61.4958496,7.55151367 C61.4696451,7.61417675 61.4326174,7.66829404 61.3847656,7.71386719 C61.3369138,7.75944033 61.2788089,7.79475899 61.2104492,7.81982422 C61.1420895,7.84488945 61.0657556,7.85742188 60.9814453,7.85742188 C60.897135,7.85742188 60.8208011,7.84488945 60.7524414,7.81982422 C60.6840817,7.79475899 60.6259768,7.75944033 60.578125,7.71386719 C60.5302732,7.66829404 60.4932456,7.61417675 60.467041,7.55151367 C60.4408365,7.4888506 60.4277344,7.41992225 60.4277344,7.34472656 Z M62.1367188,10.1166992 C62.1367188,9.84781767 62.1754553,9.59830844 62.2529297,9.36816406 C62.330404,9.13801968 62.4431959,8.93920982 62.5913086,8.77172852 C62.7394213,8.60424721 62.9222808,8.47265673 63.1398926,8.37695312 C63.3575043,8.28124952 63.6053046,8.23339844 63.8833008,8.23339844 C64.1635756,8.23339844 64.4130848,8.28124952 64.6318359,8.37695312 C64.850587,8.47265673 65.0345858,8.60424721 65.1838379,8.77172852 C65.3330899,8.93920982 65.4464514,9.13801968 65.5239258,9.36816406 C65.6014001,9.59830844 65.6401367,9.84781767 65.6401367,10.1166992 L65.6401367,10.1884766 C65.6401367,10.4596368 65.6014001,10.7097157 65.5239258,10.9387207 C65.4464514,11.1677258 65.3330899,11.365966 65.1838379,11.5334473 C65.0345858,11.7009286 64.8517263,11.8319494 64.6352539,11.9265137 C64.4187815,12.0210779 64.1704116,12.0683594 63.8901367,12.0683594 C63.6098619,12.0683594 63.3609223,12.0210779 63.1433105,11.9265137 C62.9256988,11.8319494 62.7422696,11.7009286 62.5930176,11.5334473 C62.4437655,11.365966 62.330404,11.1677258 62.2529297,10.9387207 C62.1754553,10.7097157 62.1367188,10.4596368 62.1367188,10.1884766 L62.1367188,10.1166992 Z M63.1245117,10.1884766 C63.1245117,10.3388679 63.1381835,10.4801426 63.1655273,10.6123047 C63.1928712,10.7444668 63.2367347,10.8589676 63.2971191,10.9558105 C63.3575036,11.0526535 63.4361161,11.129557 63.532959,11.1865234 C63.6298019,11.2434899 63.74886,11.2719727 63.8901367,11.2719727 C64.0268562,11.2719727 64.1436356,11.2434899 64.2404785,11.1865234 C64.3373214,11.129557 64.4165036,11.0526535 64.4780273,10.9558105 C64.5395511,10.8589676 64.5839842,10.7444668 64.6113281,10.6123047 C64.638672,10.4801426 64.6523438,10.3388679 64.6523438,10.1884766 L64.6523438,10.1166992 C64.6523438,9.97086516 64.638672,9.83243881 64.6113281,9.70141602 C64.5839842,9.57039323 64.5395511,9.45532276 64.4780273,9.35620117 C64.4165036,9.25707958 64.3367518,9.17846709 64.2387695,9.12036133 C64.1407873,9.06225557 64.0222989,9.03320312 63.8833008,9.03320312 C63.7465813,9.03320312 63.6298019,9.06225557 63.532959,9.12036133 C63.4361161,9.17846709 63.3575036,9.25707958 63.2971191,9.35620117 C63.2367347,9.45532276 63.1928712,9.57039323 63.1655273,9.70141602 C63.1381835,9.83243881 63.1245117,9.97086516 63.1245117,10.1166992 L63.1245117,10.1884766 Z M68.2514648,10.9780273 C68.2514648,10.9256182 68.241211,10.8777671 68.2207031,10.8344727 C68.2001952,10.7911782 68.1614586,10.7507326 68.1044922,10.7131348 C68.0475258,10.6755369 67.9700526,10.6396486 67.8720703,10.6054688 C67.7740881,10.5712889 67.6476245,10.5382489 67.4926758,10.5063477 C67.3035472,10.4653318 67.1286629,10.4140628 66.9680176,10.3525391 C66.8073722,10.2910153 66.6683762,10.2146814 66.5510254,10.1235352 C66.4336745,10.0323889 66.34196,9.9264329 66.2758789,9.80566406 C66.2097978,9.68489523 66.1767578,9.54475991 66.1767578,9.38525391 C66.1767578,9.23030521 66.2103675,9.08333403 66.2775879,8.94433594 C66.3448083,8.80533785 66.4416498,8.68286186 66.5681152,8.5769043 C66.6945807,8.47094674 66.8495271,8.38720734 67.032959,8.32568359 C67.2163909,8.26415985 67.4231759,8.23339844 67.6533203,8.23339844 C67.8925793,8.23339844 68.1079092,8.26302054 68.2993164,8.32226562 C68.4907236,8.38151071 68.6530755,8.4641108 68.786377,8.57006836 C68.9196784,8.67602592 69.0222164,8.80191984 69.0939941,8.94775391 C69.1657718,9.09358797 69.2016602,9.25309158 69.2016602,9.42626953 L68.2138672,9.42626953 C68.2138672,9.28499278 68.1682947,9.16821335 68.0771484,9.07592773 C67.9860021,8.98364212 67.8435882,8.9375 67.6499023,8.9375 C67.4835604,8.9375 67.3548182,8.97509728 67.2636719,9.05029297 C67.1725256,9.12548866 67.1269531,9.22119083 67.1269531,9.33740234 C67.1269531,9.39209012 67.1389159,9.44051086 67.1628418,9.48266602 C67.1867677,9.52482117 67.2255043,9.56355777 67.2790527,9.59887695 C67.3326012,9.63419614 67.4032385,9.66666652 67.4909668,9.69628906 C67.5786951,9.72591161 67.68636,9.75325508 67.8139648,9.77832031 C68.0144867,9.81705749 68.2001945,9.86490857 68.3710938,9.921875 C68.541993,9.97884143 68.6895339,10.052327 68.8137207,10.142334 C68.9379075,10.2323409 69.0353187,10.3417149 69.105957,10.470459 C69.1765954,10.5992031 69.2119141,10.7547191 69.2119141,10.9370117 C69.2119141,11.101075 69.1754561,11.2520338 69.1025391,11.3898926 C69.029622,11.5277513 68.925375,11.6468094 68.7897949,11.7470703 C68.6542148,11.8473312 68.4907236,11.9259437 68.2993164,11.9829102 C68.1079092,12.0398766 67.8937186,12.0683594 67.6567383,12.0683594 C67.3969714,12.0683594 67.1679697,12.0319014 66.9697266,11.9589844 C66.7714834,11.8860673 66.6045742,11.7903652 66.4689941,11.671875 C66.333414,11.5533848 66.2314457,11.4200854 66.1630859,11.2719727 C66.0947262,11.1238599 66.0605469,10.9746101 66.0605469,10.8242188 L66.9970703,10.8242188 C67.0016276,10.9199224 67.0227049,11.0025224 67.0603027,11.0720215 C67.0979006,11.1415205 67.1474606,11.1979165 67.2089844,11.2412109 C67.2705081,11.2845054 67.3417151,11.3164061 67.4226074,11.3369141 C67.5034998,11.357422 67.5883785,11.3676758 67.6772461,11.3676758 C67.8663746,11.3676758 68.0093582,11.3317875 68.1062012,11.2600098 C68.2030441,11.1882321 68.2514648,11.0942389 68.2514648,10.9780273 Z M56.8286133,11.996582 L56.8286133,7.35839844 L57.7001953,7.35839844 L57.7001953,11.996582 L56.8286133,11.996582 Z M55.0068359,8.37353516 C55.0068359,8.23681572 55.054687,8.12003629 55.1503906,8.02319336 C55.2460942,7.92635043 55.362304,7.87792969 55.4990234,7.87792969 C55.5445966,7.87792969 55.5884601,7.88362625 55.6306152,7.89501953 C55.6727704,7.90641282 55.7120766,7.92293283 55.7485352,7.94458008 C55.7849937,7.96622732 55.819173,7.99300114 55.8510742,8.02490234 C55.898926,8.07047549 55.9348143,8.12288382 55.9587402,8.18212891 C55.9826661,8.24137399 55.9946289,8.30403613 55.9946289,8.37011719 C55.9946289,8.38606779 55.9940593,8.40030918 55.9929199,8.4128418 C55.9917806,8.42537441 55.9900716,8.43847649 55.987793,8.45214844 C55.9855143,8.46582038 55.9832357,8.47892246 55.980957,8.49145508 C55.9786784,8.50398769 55.9752604,8.51595046 55.9707031,8.52734375 C55.9661458,8.53873704 55.9615886,8.55069981 55.9570312,8.56323242 C55.9524739,8.57576504 55.947347,8.58772781 55.9416504,8.59912109 C55.9359537,8.61051438 55.9296875,8.62133784 55.9228516,8.6315918 L55.9023438,8.66235352 C55.8955078,8.67260747 55.8875326,8.68286128 55.878418,8.69311523 C55.8693033,8.70336919 55.8601888,8.71305334 55.8510742,8.72216797 C55.753092,8.82015023 55.6368822,8.86914062 55.5024414,8.86914062 C55.3634433,8.86914062 55.2460942,8.82071989 55.1503906,8.72387695 C55.054687,8.62703402 55.0068359,8.51025459 55.0068359,8.37353516 Z M54.128418,12.765625 C54.5066751,12.7679037 54.7812491,12.6949877 54.9521484,12.546875 C55.1230477,12.3987623 55.2084961,12.167482 55.2084961,11.8530273 L55.2084961,9.6484375 L56.1176758,9.64160156 L56.1176758,11.8461914 C56.1176758,12.4431996 55.948488,12.8972152 55.6101074,13.208252 C55.2717268,13.5192887 54.7812532,13.675944 54.1386719,13.6782227 L53.6430664,13.6816406 L53.6430664,12.765625 L54.128418,12.765625 Z" id="دانلود-اپلیکیشن-ios" fill="#FFFFFF" fill-rule="nonzero"></path>
                <path d="M48.6807847,30.9591922 L46.4025514,30.9591922 L45.1545891,26.918418 L40.8168166,26.918418 L39.6280423,30.9591922 L37.41,30.9591922 L41.707645,17.2025735 L44.3620728,17.2025735 L48.6807847,30.9591922 Z M44.7783947,25.2231329 L43.6498114,21.6309891 C43.5304324,21.2640219 43.3067221,20.3998399 42.9766742,19.039477 L42.9365468,19.039477 C42.8051295,19.6245571 42.5934575,20.488739 42.3025338,21.6309891 L41.1940142,25.2231329 L44.7783947,25.2231329 L44.7783947,25.2231329 Z M59.7328751,25.8774716 C59.7328751,27.564487 59.2904705,28.8979735 58.4056612,29.8768973 C57.613145,30.7483152 56.6290204,31.1835073 55.4542906,31.1835073 C54.1862646,31.1835073 53.2753726,30.7142028 52.7206112,29.7755937 L52.6804838,29.7755937 L52.6804838,35.001 L50.5416931,35.001 L50.5416931,24.305198 C50.5416931,23.2446111 50.5146071,22.156114 50.4624415,21.0397067 L52.3434136,21.0397067 L52.4627926,22.6119803 L52.50292,22.6119803 C53.2161846,21.4273481 54.2986214,20.8360658 55.7512334,20.8360658 C56.886839,20.8360658 57.8348489,21.2981343 58.5932568,22.2233052 C59.3536712,23.1495097 59.7328751,24.3672206 59.7328751,25.8774716 Z M57.5539571,25.958101 C57.5539571,24.9926155 57.3432882,24.1966584 56.9199441,23.5702299 C56.4574757,22.9169249 55.8365042,22.5902724 55.0580325,22.5902724 C54.5303571,22.5902724 54.0508347,22.7722054 53.6224746,23.1309029 C53.1931114,23.4927016 52.9122195,23.9651073 52.7808023,24.5501874 C52.7145921,24.8230869 52.681487,25.0463684 52.681487,25.2220992 L52.681487,26.8760359 C52.681487,27.5975658 52.8961686,28.2064212 53.3255318,28.703636 C53.754895,29.2008507 54.312666,29.4489412 54.9988446,29.4489412 C55.8044022,29.4489412 56.4313929,29.128491 56.8798167,28.4896579 C57.3292436,27.8497911 57.5539571,27.0062834 57.5539571,25.958101 Z M70.8050292,25.8774716 C70.8050292,27.564487 70.3626246,28.8979735 69.4768121,29.8768973 C68.6852991,30.7483152 67.7011745,31.1835073 66.5264447,31.1835073 C65.2584187,31.1835073 64.3475266,30.7142028 63.7937685,29.7755937 L63.7536411,29.7755937 L63.7536411,35.001 L61.6148504,35.001 L61.6148504,24.305198 C61.6148504,23.2446111 61.5877644,22.156114 61.5355988,21.0397067 L63.4165709,21.0397067 L63.5359499,22.6119803 L63.5760773,22.6119803 C64.2883387,21.4273481 65.3707755,20.8360658 66.8243907,20.8360658 C67.9589931,20.8360658 68.907003,21.2981343 69.6674173,22.2233052 C70.4248221,23.1495097 70.8050292,24.3672206 70.8050292,25.8774716 Z M68.6261112,25.958101 C68.6261112,24.9926155 68.4144391,24.1966584 67.991095,23.5702299 C67.5286266,22.9169249 66.9096614,22.5902724 66.1301866,22.5902724 C65.601508,22.5902724 65.1229887,22.7722054 64.6936255,23.1309029 C64.2642623,23.4927016 63.9843736,23.9651073 63.8529564,24.5501874 C63.7877494,24.8230869 63.7536411,25.0463684 63.7536411,25.2220992 L63.7536411,26.8760359 C63.7536411,27.5975658 63.9683227,28.2064212 64.3956795,28.703636 C64.8250428,29.199817 65.3828137,29.4489412 66.0709987,29.4489412 C66.8765563,29.4489412 67.503547,29.128491 67.9519708,28.4896579 C68.4013977,27.8497911 68.6261112,27.0062834 68.6261112,25.958101 Z M83.1843335,27.1013848 C83.1843335,28.271545 82.7900818,29.2235923 81.9985687,29.9585604 C81.1288072,30.7617535 79.9179628,31.1628331 78.3620227,31.1628331 C76.9254616,31.1628331 75.7738051,30.877529 74.9020372,30.3058872 L75.3976107,28.4689837 C76.3365919,29.0540638 77.366863,29.3476376 78.4894272,29.3476376 C79.2949848,29.3476376 79.9219755,29.1595023 80.3724056,28.7852991 C80.8208294,28.4110959 81.0445397,27.9087126 81.0445397,27.2822841 C81.0445397,26.7240805 80.8599536,26.2537422 80.4897783,25.872303 C80.1216094,25.4908639 79.5066569,25.1363012 78.6479304,24.808615 C76.3105091,23.9103206 75.1428016,22.5944072 75.1428016,20.8639759 C75.1428016,19.7330967 75.5521012,18.8058584 76.3717034,18.0843285 C77.1882961,17.3617649 78.2777551,17.001 79.6400805,17.001 C80.8549377,17.001 81.8641419,17.2191129 82.6696995,17.654305 L82.1350019,19.4508938 C81.382613,19.0291399 80.5319121,18.818263 79.5798894,18.818263 C78.8275006,18.818263 78.2396341,19.0094994 77.8182963,19.3899048 C77.4621656,19.7299956 77.2835987,20.1445135 77.2835987,20.6355259 C77.2835987,21.1792576 77.4872453,21.6289217 77.8965448,21.9824506 C78.2526755,22.3091031 78.8997299,22.6626321 79.8387112,23.0440713 C80.9873581,23.5206118 81.8310368,24.0777817 82.3737599,24.7166148 C82.9144767,25.3533804 83.1843335,26.1503712 83.1843335,27.1013848 Z M90.2557854,22.6936434 L87.8983004,22.6936434 L87.8983004,27.5097004 C87.8983004,28.7346473 88.313619,29.3466039 89.1462626,29.3466039 C89.5284762,29.3466039 89.8454827,29.3124914 90.0962789,29.2442665 L90.1554669,30.9178437 C89.7341291,31.0801363 89.1793677,31.1617994 88.4921859,31.1617994 C87.6475041,31.1617994 86.9874083,30.8961358 86.5108953,30.3658424 C86.0363888,29.8345152 85.7976307,28.9434568 85.7976307,27.6916334 L85.7976307,22.691576 L84.3931716,22.691576 L84.3931716,21.0376393 L85.7976307,21.0376393 L85.7976307,19.22141 L87.8983004,18.568105 L87.8983004,21.0376393 L90.2557854,21.0376393 L90.2557854,22.6936434 Z M100.892557,25.9177863 C100.892557,27.4425092 100.469213,28.6943326 99.6245311,29.6732564 C98.7387187,30.681124 97.5629857,31.1835073 96.0973323,31.1835073 C94.6848476,31.1835073 93.5602771,30.7007645 92.7216144,29.735279 C91.8829516,28.7697934 91.4636202,27.5510488 91.4636202,26.0821463 C91.4636202,24.5450188 91.8949898,23.2859595 92.7607386,22.3070357 C93.624481,21.3270782 94.7901821,20.8370995 96.2558355,20.8370995 C97.6683202,20.8370995 98.8049289,21.3198422 99.6626522,22.2863615 C100.483258,23.2239369 100.892557,24.4344118 100.892557,25.9177863 Z M98.6735116,25.9891123 C98.6735116,25.0742786 98.4839097,24.2896924 98.0996898,23.6353536 C97.651266,22.8435314 97.0102307,22.4486541 96.1795935,22.4486541 C95.3198638,22.4486541 94.6667903,22.8445652 94.2183666,23.6353536 C93.8341467,24.2907261 93.6445447,25.0877168 93.6445447,26.0304607 C93.6445447,26.9452945 93.8341467,27.7298807 94.2183666,28.3831857 C94.6808349,29.1750079 95.3268861,29.5698853 96.1605329,29.5698853 C96.9771256,29.5698853 97.6181609,29.1667382 98.0806292,28.3625115 C98.474881,27.6957683 98.6735116,26.9029124 98.6735116,25.9891123 Z M107.84463,22.9779138 C107.632958,22.9375991 107.407241,22.9169249 107.17049,22.9169249 C106.418101,22.9169249 105.836253,23.2094649 105.426954,23.7955788 C105.070823,24.312434 104.892256,24.965739 104.892256,25.7544601 L104.892256,30.9591922 L102.754469,30.9591922 L102.774532,24.1635797 C102.774532,23.0202959 102.747446,21.9793495 102.694278,21.0407404 L104.557192,21.0407404 L104.635441,22.9386328 L104.694629,22.9386328 C104.920345,22.2863615 105.276476,21.7612366 105.764024,21.3673929 C106.240537,21.0128302 106.755171,20.8360658 107.309932,20.8360658 C107.50756,20.8360658 107.686127,20.8505377 107.84463,20.8763805 L107.84463,22.9779138 Z M117.41,25.5301449 C117.41,25.9250223 117.38492,26.257877 117.331752,26.5297429 L110.91538,26.5297429 C110.940459,27.5097004 111.250443,28.2591405 111.846335,28.7759957 C112.387052,29.2380643 113.086272,29.4696154 113.944999,29.4696154 C114.895015,29.4696154 115.761767,29.3135251 116.541242,29.0003109 L116.876306,30.5302023 C115.965413,30.9395517 114.889999,31.1431926 113.649059,31.1431926 C112.15632,31.1431926 110.984599,30.6904274 110.131892,29.7859308 C109.281191,28.8814342 108.854837,27.6668244 108.854837,26.1431352 C108.854837,24.6473562 109.251095,23.4017351 110.044615,22.4083393 C110.875252,21.3477524 111.997816,20.817459 113.410301,20.817459 C114.797706,20.817459 115.848041,21.3477524 116.561305,22.4083393 C117.126099,23.2508134 117.41,24.2927935 117.41,25.5301449 Z M115.370525,24.958503 C115.384569,24.305198 115.245127,23.7407921 114.955206,23.2642516 C114.585031,22.6512613 114.016225,22.345283 113.250795,22.345283 C112.551574,22.345283 111.982769,22.6440253 111.548389,23.2435774 C111.192259,23.7201179 110.980587,24.2917598 110.91538,24.9574693 L115.370525,24.9574693 L115.370525,24.958503 Z" id="Combined-Shape" fill="#FFFFFF" fill-rule="evenodd"></path>
            </g>
        </g>
    </g>
</svg>